<?xml version="1.0" encoding="UTF-8"?>
<svg width="48px" height="20px" viewBox="0 0 48 20" version="1.1" xmlns="http://www.w3.org/2000/svg" xmlns:xlink="http://www.w3.org/1999/xlink">
    <!-- Generator: Sketch 61 (89581) - https://sketch.com -->
    <title>Game/AllGame/ListModel/Certification_BMM</title>
    <desc>Created with Sketch.</desc>
    <g id="🔪Slice" stroke="none" stroke-width="1" fill="none" fill-rule="evenodd">
        <g id="Game" transform="translate(-120.000000, -2380.000000)" fill="#C41230" fill-rule="nonzero">
            <g id="Game/AllGame/ListModel/Certification/BMM" transform="translate(120.000000, 2380.000000)">
                <path d="M2.00911656,2 L2.00911656,6.2172524 C2.00911656,6.39354176 2.14977209,6.53217709 2.3928804,6.53217709 C2.50857831,6.53345209 2.61603339,6.47330468 2.67419145,6.37471474 C3.27675277,5.42480602 4.90384198,4.71280237 6.45278923,4.71280237 C9.44823095,4.71280237 12.6294769,6.83512095 12.6294769,10.8384299 C12.6294769,14.8417389 9.45344042,17 6.4579987,17 C4.90905144,17 3.28196223,16.2674578 2.67940091,15.3175491 C2.60463187,15.2027296 2.46936433,15.1407336 2.33210332,15.1583752 C2.24319806,15.1614957 2.15919933,15.1993281 2.09861534,15.2635366 C2.03803135,15.327745 2.00583362,15.4130605 2.00911656,15.5006846 L2.00911656,16.6679598 L0,16.6679598 L0,2 L2.00911656,2 Z M43.7785978,4.71280237 C45.8085522,4.71622547 48,6.16077134 48,9.30830671 L48,16.6679598 L45.9908834,16.6679598 L45.9908834,9.32371063 C45.9908834,7.60189411 44.7840243,6.69135098 43.598003,6.69135098 C41.9691773,6.69135098 41.0245279,7.77989503 41.0245279,9.67971246 L41.0245279,16.6679598 L39.0154113,16.6679598 L39.0154113,9.67971246 C39.0154113,7.77989503 38.0707619,6.69135098 36.4419362,6.69135098 C35.2559149,6.69135098 34.0507923,7.60189411 34.0507923,9.32371063 L34.0507923,16.6645367 L32.0208379,16.6645367 L32.0208379,9.30488361 C32.0208379,6.15734824 34.2105492,4.71280237 36.2613414,4.71280237 C37.817717,4.71280237 39.0689584,5.39063847 39.5937637,6.47524408 L39.6787497,6.67081241 C39.7206032,6.79996144 39.8416197,6.88821364 39.9791621,6.88989046 L40.0399392,6.88989046 C40.1824921,6.88877136 40.3098734,6.80190312 40.3611895,6.67081241 C40.8039939,5.46417161 42.1306707,4.71280237 43.7785978,4.71280237 Z M18.448448,4.71280237 C20.0963751,4.71280237 21.4039505,5.47272935 21.8658563,6.67081241 C21.9119054,6.80589752 22.0426181,6.89503757 22.1871066,6.88989046 L22.2270458,6.88989046 C22.3706343,6.89143947 22.5003832,6.80572906 22.5535055,6.67423551 C22.9945735,5.46759471 24.3004124,4.71622547 25.9709138,4.71622547 C27.9991318,4.71622547 30.1905796,6.16077134 30.1905796,9.30830671 L30.1905796,16.6679598 L28.181463,16.6679598 L28.181463,9.32371063 C28.181463,7.60189411 26.9746039,6.69135098 25.7885826,6.69135098 C24.1597569,6.69135098 23.2168439,7.77989503 23.2168439,9.67971246 L23.2168439,16.6679598 L21.2059909,16.6679598 L21.2059909,9.67971246 C21.2059909,7.77989503 20.2613414,6.69135098 18.6325157,6.69135098 C17.4360755,6.69135098 16.220534,7.60189411 16.220534,9.32371063 L16.220534,16.6645367 L14.2079444,16.6645367 L14.2079444,9.30488361 C14.2079444,6.15734824 16.3993922,4.71280237 18.448448,4.71280237 Z M6.23225526,6.55271565 C3.8202735,6.55271565 2.00911656,8.40118667 2.00911656,10.8486992 C2.00911656,13.2962118 3.8202735,15.1635098 6.23225526,15.1635098 C8.62339918,15.1635098 10.451921,13.303058 10.451921,10.8486992 C10.451921,8.39434048 8.64423703,6.55271565 6.23225526,6.55271565 Z" id="Shape"></path>
            </g>
        </g>
    </g>
</svg>