<?xml version="1.0" encoding="UTF-8"?>
<svg width="20px" height="20px" viewBox="0 0 20 20" version="1.1" xmlns="http://www.w3.org/2000/svg" xmlns:xlink="http://www.w3.org/1999/xlink">
    <!-- Generator: Sketch 61 (89581) - https://sketch.com -->
    <title>Game/Common/Icon20_GridModel_Checked</title>
    <desc>Created with Sketch.</desc>
    <g id="🔪Slice" stroke="none" stroke-width="1" fill="none" fill-rule="evenodd">
        <g id="Game" transform="translate(-960.000000, -989.000000)" fill="#000000">
            <g id="Group-2" transform="translate(120.000000, 989.000000)">
                <g id="Game/Common/Icon20/GridModel/Checked" transform="translate(840.000000, 0.000000)">
                    <path d="M18.7180574,11 C19.1638168,11 19.3254599,11.0464128 19.4884229,11.1335664 C19.6513858,11.2207199 19.7792801,11.3486142 19.8664336,11.5115771 C19.9535872,11.6745401 20,11.8361832 20,12.2819426 L20,16.7180574 C20,17.1638168 19.9535872,17.3254599 19.8664336,17.4884229 C19.7792801,17.6513858 19.6513858,17.7792801 19.4884229,17.8664336 C19.3254599,17.9535872 19.1638168,18 18.7180574,18 L16.2819426,18 C15.8361832,18 15.6745401,17.9535872 15.5115771,17.8664336 C15.3486142,17.7792801 15.2207199,17.6513858 15.1335664,17.4884229 C15.0464128,17.3254599 15,17.1638168 15,16.7180574 L15,12.2819426 C15,11.8361832 15.0464128,11.6745401 15.1335664,11.5115771 C15.2207199,11.3486142 15.3486142,11.2207199 15.5115771,11.1335664 C15.6745401,11.0464128 15.8361832,11 16.2819426,11 L18.7180574,11 Z M4.7180574,11 C5.16381677,11 5.32545989,11.0464128 5.48842285,11.1335664 C5.65138581,11.2207199 5.7792801,11.3486142 5.86643365,11.5115771 C5.95358719,11.6745401 6,11.8361832 6,12.2819426 L6,16.7180574 C6,17.1638168 5.95358719,17.3254599 5.86643365,17.4884229 C5.7792801,17.6513858 5.65138581,17.7792801 5.48842285,17.8664336 C5.32545989,17.9535872 5.16381677,18 4.7180574,18 L2.2819426,18 C1.83618323,18 1.67454011,17.9535872 1.51157715,17.8664336 C1.34861419,17.7792801 1.2207199,17.6513858 1.13356635,17.4884229 C1.04641281,17.3254599 1,17.1638168 1,16.7180574 L1,12.2819426 C1,11.8361832 1.04641281,11.6745401 1.13356635,11.5115771 C1.2207199,11.3486142 1.34861419,11.2207199 1.51157715,11.1335664 C1.67454011,11.0464128 1.83618323,11 2.2819426,11 L4.7180574,11 Z M11.7180574,11 C12.1638168,11 12.3254599,11.0464128 12.4884229,11.1335664 C12.6513858,11.2207199 12.7792801,11.3486142 12.8664336,11.5115771 C12.9535872,11.6745401 13,11.8361832 13,12.2819426 L13,16.7180574 C13,17.1638168 12.9535872,17.3254599 12.8664336,17.4884229 C12.7792801,17.6513858 12.6513858,17.7792801 12.4884229,17.8664336 C12.3254599,17.9535872 12.1638168,18 11.7180574,18 L9.2819426,18 C8.83618323,18 8.67454011,17.9535872 8.51157715,17.8664336 C8.34861419,17.7792801 8.2207199,17.6513858 8.13356635,17.4884229 C8.04641281,17.3254599 8,17.1638168 8,16.7180574 L8,12.2819426 C8,11.8361832 8.04641281,11.6745401 8.13356635,11.5115771 C8.2207199,11.3486142 8.34861419,11.2207199 8.51157715,11.1335664 C8.67454011,11.0464128 8.83618323,11 9.2819426,11 L11.7180574,11 Z M4.7180574,2 C5.16381677,2 5.32545989,2.04641281 5.48842285,2.13356635 C5.65138581,2.2207199 5.7792801,2.34861419 5.86643365,2.51157715 C5.95358719,2.67454011 6,2.83618323 6,3.2819426 L6,7.7180574 C6,8.16381677 5.95358719,8.32545989 5.86643365,8.48842285 C5.7792801,8.65138581 5.65138581,8.7792801 5.48842285,8.86643365 C5.32545989,8.95358719 5.16381677,9 4.7180574,9 L2.2819426,9 C1.83618323,9 1.67454011,8.95358719 1.51157715,8.86643365 C1.34861419,8.7792801 1.2207199,8.65138581 1.13356635,8.48842285 C1.04641281,8.32545989 1,8.16381677 1,7.7180574 L1,3.2819426 C1,2.83618323 1.04641281,2.67454011 1.13356635,2.51157715 C1.2207199,2.34861419 1.34861419,2.2207199 1.51157715,2.13356635 C1.67454011,2.04641281 1.83618323,2 2.2819426,2 L4.7180574,2 Z M11.7180574,2 C12.1638168,2 12.3254599,2.04641281 12.4884229,2.13356635 C12.6513858,2.2207199 12.7792801,2.34861419 12.8664336,2.51157715 C12.9535872,2.67454011 13,2.83618323 13,3.2819426 L13,7.7180574 C13,8.16381677 12.9535872,8.32545989 12.8664336,8.48842285 C12.7792801,8.65138581 12.6513858,8.7792801 12.4884229,8.86643365 C12.3254599,8.95358719 12.1638168,9 11.7180574,9 L9.2819426,9 C8.83618323,9 8.67454011,8.95358719 8.51157715,8.86643365 C8.34861419,8.7792801 8.2207199,8.65138581 8.13356635,8.48842285 C8.04641281,8.32545989 8,8.16381677 8,7.7180574 L8,3.2819426 C8,2.83618323 8.04641281,2.67454011 8.13356635,2.51157715 C8.2207199,2.34861419 8.34861419,2.2207199 8.51157715,2.13356635 C8.67454011,2.04641281 8.83618323,2 9.2819426,2 L11.7180574,2 Z M18.7180574,2 C19.1638168,2 19.3254599,2.04641281 19.4884229,2.13356635 C19.6513858,2.2207199 19.7792801,2.34861419 19.8664336,2.51157715 C19.9535872,2.67454011 20,2.83618323 20,3.2819426 L20,7.7180574 C20,8.16381677 19.9535872,8.32545989 19.8664336,8.48842285 C19.7792801,8.65138581 19.6513858,8.7792801 19.4884229,8.86643365 C19.3254599,8.95358719 19.1638168,9 18.7180574,9 L16.2819426,9 C15.8361832,9 15.6745401,8.95358719 15.5115771,8.86643365 C15.3486142,8.7792801 15.2207199,8.65138581 15.1335664,8.48842285 C15.0464128,8.32545989 15,8.16381677 15,7.7180574 L15,3.2819426 C15,2.83618323 15.0464128,2.67454011 15.1335664,2.51157715 C15.2207199,2.34861419 15.3486142,2.2207199 15.5115771,2.13356635 C15.6745401,2.04641281 15.8361832,2 16.2819426,2 L18.7180574,2 Z" id="Combined-Shape"></path>
                </g>
            </g>
        </g>
    </g>
</svg>