<?xml version="1.0" encoding="UTF-8"?>
<svg width="20px" height="20px" viewBox="0 0 20 20" version="1.1" xmlns="http://www.w3.org/2000/svg" xmlns:xlink="http://www.w3.org/1999/xlink">
    <!-- Generator: Sketch 61 (89581) - https://sketch.com -->
    <title>Game/Common/Icon20_AllGame</title>
    <desc>Created with Sketch.</desc>
    <g id="🔪Slice" stroke="none" stroke-width="1" fill="none" fill-rule="evenodd">
        <g id="Game" transform="translate(-480.000000, -989.000000)" fill="#000000">
            <g id="Game/Common/Icon20/AllGame" transform="translate(480.000000, 989.000000)">
                <path d="M6.3590287,13 C6.58190838,13 6.66272994,13.0232064 6.74421143,13.0667832 C6.82569291,13.1103599 6.88964005,13.1743071 6.93321682,13.2557886 C6.9767936,13.3372701 7,13.4180916 7,13.6409713 L7,16.3590287 C7,16.5819084 6.9767936,16.6627299 6.93321682,16.7442114 C6.88964005,16.8256929 6.82569291,16.8896401 6.74421143,16.9332168 C6.66272994,16.9767936 6.58190838,17 6.3590287,17 L3.6409713,17 C3.41809162,17 3.33727006,16.9767936 3.25578857,16.9332168 C3.17430709,16.8896401 3.11035995,16.8256929 3.06678318,16.7442114 C3.0232064,16.6627299 3,16.5819084 3,16.3590287 L3,13.6409713 C3,13.4180916 3.0232064,13.3372701 3.06678318,13.2557886 C3.11035995,13.1743071 3.17430709,13.1103599 3.25578857,13.0667832 C3.33727006,13.0232064 3.41809162,13 3.6409713,13 L6.3590287,13 Z M11.3590287,13 C11.5819084,13 11.6627299,13.0232064 11.7442114,13.0667832 C11.8256929,13.1103599 11.8896401,13.1743071 11.9332168,13.2557886 C11.9767936,13.3372701 12,13.4180916 12,13.6409713 L12,16.3590287 C12,16.5819084 11.9767936,16.6627299 11.9332168,16.7442114 C11.8896401,16.8256929 11.8256929,16.8896401 11.7442114,16.9332168 C11.6627299,16.9767936 11.5819084,17 11.3590287,17 L8.6409713,17 C8.41809162,17 8.33727006,16.9767936 8.25578857,16.9332168 C8.17430709,16.8896401 8.11035995,16.8256929 8.06678318,16.7442114 C8.0232064,16.6627299 8,16.5819084 8,16.3590287 L8,13.6409713 C8,13.4180916 8.0232064,13.3372701 8.06678318,13.2557886 C8.11035995,13.1743071 8.17430709,13.1103599 8.25578857,13.0667832 C8.33727006,13.0232064 8.41809162,13 8.6409713,13 L11.3590287,13 Z M16.3590287,13 C16.5819084,13 16.6627299,13.0232064 16.7442114,13.0667832 C16.8256929,13.1103599 16.8896401,13.1743071 16.9332168,13.2557886 C16.9767936,13.3372701 17,13.4180916 17,13.6409713 L17,16.3590287 C17,16.5819084 16.9767936,16.6627299 16.9332168,16.7442114 C16.8896401,16.8256929 16.8256929,16.8896401 16.7442114,16.9332168 C16.6627299,16.9767936 16.5819084,17 16.3590287,17 L13.6409713,17 C13.4180916,17 13.3372701,16.9767936 13.2557886,16.9332168 C13.1743071,16.8896401 13.1103599,16.8256929 13.0667832,16.7442114 C13.0232064,16.6627299 13,16.5819084 13,16.3590287 L13,13.6409713 C13,13.4180916 13.0232064,13.3372701 13.0667832,13.2557886 C13.1103599,13.1743071 13.1743071,13.1103599 13.2557886,13.0667832 C13.3372701,13.0232064 13.4180916,13 13.6409713,13 L16.3590287,13 Z M6.3590287,8 C6.58190838,8 6.66272994,8.0232064 6.74421143,8.06678318 C6.82569291,8.11035995 6.88964005,8.17430709 6.93321682,8.25578857 C6.9767936,8.33727006 7,8.41809162 7,8.6409713 L7,11.3590287 C7,11.5819084 6.9767936,11.6627299 6.93321682,11.7442114 C6.88964005,11.8256929 6.82569291,11.8896401 6.74421143,11.9332168 C6.66272994,11.9767936 6.58190838,12 6.3590287,12 L3.6409713,12 C3.41809162,12 3.33727006,11.9767936 3.25578857,11.9332168 C3.17430709,11.8896401 3.11035995,11.8256929 3.06678318,11.7442114 C3.0232064,11.6627299 3,11.5819084 3,11.3590287 L3,8.6409713 C3,8.41809162 3.0232064,8.33727006 3.06678318,8.25578857 C3.11035995,8.17430709 3.17430709,8.11035995 3.25578857,8.06678318 C3.33727006,8.0232064 3.41809162,8 3.6409713,8 L6.3590287,8 Z M11.3590287,8 C11.5819084,8 11.6627299,8.0232064 11.7442114,8.06678318 C11.8256929,8.11035995 11.8896401,8.17430709 11.9332168,8.25578857 C11.9767936,8.33727006 12,8.41809162 12,8.6409713 L12,11.3590287 C12,11.5819084 11.9767936,11.6627299 11.9332168,11.7442114 C11.8896401,11.8256929 11.8256929,11.8896401 11.7442114,11.9332168 C11.6627299,11.9767936 11.5819084,12 11.3590287,12 L8.6409713,12 C8.41809162,12 8.33727006,11.9767936 8.25578857,11.9332168 C8.17430709,11.8896401 8.11035995,11.8256929 8.06678318,11.7442114 C8.0232064,11.6627299 8,11.5819084 8,11.3590287 L8,8.6409713 C8,8.41809162 8.0232064,8.33727006 8.06678318,8.25578857 C8.11035995,8.17430709 8.17430709,8.11035995 8.25578857,8.06678318 C8.33727006,8.0232064 8.41809162,8 8.6409713,8 L11.3590287,8 Z M16.3590287,8 C16.5819084,8 16.6627299,8.0232064 16.7442114,8.06678318 C16.8256929,8.11035995 16.8896401,8.17430709 16.9332168,8.25578857 C16.9767936,8.33727006 17,8.41809162 17,8.6409713 L17,11.3590287 C17,11.5819084 16.9767936,11.6627299 16.9332168,11.7442114 C16.8896401,11.8256929 16.8256929,11.8896401 16.7442114,11.9332168 C16.6627299,11.9767936 16.5819084,12 16.3590287,12 L13.6409713,12 C13.4180916,12 13.3372701,11.9767936 13.2557886,11.9332168 C13.1743071,11.8896401 13.1103599,11.8256929 13.0667832,11.7442114 C13.0232064,11.6627299 13,11.5819084 13,11.3590287 L13,8.6409713 C13,8.41809162 13.0232064,8.33727006 13.0667832,8.25578857 C13.1103599,8.17430709 13.1743071,8.11035995 13.2557886,8.06678318 C13.3372701,8.0232064 13.4180916,8 13.6409713,8 L16.3590287,8 Z M6.3590287,3 C6.58190838,3 6.66272994,3.0232064 6.74421143,3.06678318 C6.82569291,3.11035995 6.88964005,3.17430709 6.93321682,3.25578857 C6.9767936,3.33727006 7,3.41809162 7,3.6409713 L7,6.3590287 C7,6.58190838 6.9767936,6.66272994 6.93321682,6.74421143 C6.88964005,6.82569291 6.82569291,6.88964005 6.74421143,6.93321682 C6.66272994,6.9767936 6.58190838,7 6.3590287,7 L3.6409713,7 C3.41809162,7 3.33727006,6.9767936 3.25578857,6.93321682 C3.17430709,6.88964005 3.11035995,6.82569291 3.06678318,6.74421143 C3.0232064,6.66272994 3,6.58190838 3,6.3590287 L3,3.6409713 C3,3.41809162 3.0232064,3.33727006 3.06678318,3.25578857 C3.11035995,3.17430709 3.17430709,3.11035995 3.25578857,3.06678318 C3.33727006,3.0232064 3.41809162,3 3.6409713,3 L6.3590287,3 Z M11.3590287,3 C11.5819084,3 11.6627299,3.0232064 11.7442114,3.06678318 C11.8256929,3.11035995 11.8896401,3.17430709 11.9332168,3.25578857 C11.9767936,3.33727006 12,3.41809162 12,3.6409713 L12,6.3590287 C12,6.58190838 11.9767936,6.66272994 11.9332168,6.74421143 C11.8896401,6.82569291 11.8256929,6.88964005 11.7442114,6.93321682 C11.6627299,6.9767936 11.5819084,7 11.3590287,7 L8.6409713,7 C8.41809162,7 8.33727006,6.9767936 8.25578857,6.93321682 C8.17430709,6.88964005 8.11035995,6.82569291 8.06678318,6.74421143 C8.0232064,6.66272994 8,6.58190838 8,6.3590287 L8,3.6409713 C8,3.41809162 8.0232064,3.33727006 8.06678318,3.25578857 C8.11035995,3.17430709 8.17430709,3.11035995 8.25578857,3.06678318 C8.33727006,3.0232064 8.41809162,3 8.6409713,3 L11.3590287,3 Z M16.3590287,3 C16.5819084,3 16.6627299,3.0232064 16.7442114,3.06678318 C16.8256929,3.11035995 16.8896401,3.17430709 16.9332168,3.25578857 C16.9767936,3.33727006 17,3.41809162 17,3.6409713 L17,6.3590287 C17,6.58190838 16.9767936,6.66272994 16.9332168,6.74421143 C16.8896401,6.82569291 16.8256929,6.88964005 16.7442114,6.93321682 C16.6627299,6.9767936 16.5819084,7 16.3590287,7 L13.6409713,7 C13.4180916,7 13.3372701,6.9767936 13.2557886,6.93321682 C13.1743071,6.88964005 13.1103599,6.82569291 13.0667832,6.74421143 C13.0232064,6.66272994 13,6.58190838 13,6.3590287 L13,3.6409713 C13,3.41809162 13.0232064,3.33727006 13.0667832,3.25578857 C13.1103599,3.17430709 13.1743071,3.11035995 13.2557886,3.06678318 C13.3372701,3.0232064 13.4180916,3 13.6409713,3 L16.3590287,3 Z" id="Combined-Shape"></path>
            </g>
        </g>
    </g>
</svg>