<?xml version="1.0" encoding="UTF-8"?>
<svg width="80px" height="80px" viewBox="0 0 80 80" version="1.1" xmlns="http://www.w3.org/2000/svg" xmlns:xlink="http://www.w3.org/1999/xlink">
    <title>icon80/1</title>
    <g id="icon80/1" stroke="none" stroke-width="1" fill="none" fill-rule="evenodd">
        <g id="detail-game-flow">
            <circle id="oval" stroke="#FF2D55" cx="40" cy="40" r="39.5"></circle>
            <g id="编组" transform="translate(24.000000, 26.000000)">
                <path d="M15.5001133,0 C16.9844708,0 18.3279986,0.598658824 19.3006308,1.56519574 C20.2766951,2.53510578 20.8796496,3.87529549 20.8796496,5.35510421 C20.8796496,6.83491293 20.2766951,8.17499348 19.3006308,9.14501268 C18.3279986,10.1115387 16.9844708,10.7101866 15.5001133,10.7101866 C14.0156452,10.7101866 12.6722281,10.1115387 11.6995959,9.14501268 C10.7235315,8.17510264 10.1205771,6.83491293 10.1205771,5.35510421 C10.1205771,3.87529549 10.7235315,2.53510578 11.6995959,1.56508658 C12.6722281,0.598626075 14.0156452,0 15.5001133,0 Z" id="路径" stroke="#FF2D55" stroke-width="2.2"></path>
                <polygon id="路径" fill="#FF2D55" fill-rule="nonzero" points="17.398656 11.3689831 19.4916143 10.1404668 22.6888452 15.3659731 20.5958868 16.5944894 19.069985 14.1005784"></polygon>
                <path d="M2.74883316,17.8029198 C4.05981073,17.0507893 5.55346822,16.8976341 6.90862112,17.2584166 C8.26609903,17.6198541 9.4839652,18.4966484 10.2420315,19.8011419 C11.0020907,21.1094561 11.1563169,22.5998536 10.7916213,23.9519421 C10.42759,25.3020656 9.54596566,26.5148625 8.2314452,27.2690672 C6.92035692,28.0211977 5.42669943,28.1743529 4.07143582,27.8135704 C2.71406862,27.4521329 1.49620245,26.5754478 0.738246838,25.2708451 C-0.0217902211,23.9625309 -0.176071721,22.4720242 0.188546337,21.1199358 C0.552577605,19.7698122 1.43420199,18.5571245 2.74883316,17.8029198 Z" id="路径" stroke="#FF2D55" stroke-width="2.2"></path>
                <path d="M24.0911627,17.2584166 C25.4464263,16.8976341 26.9401945,17.0507893 28.2511721,17.8028107 C29.5658032,18.5571245 30.4474276,19.7699214 30.8114589,21.1200449 C31.1760437,22.4721334 31.0218176,23.9625309 30.2618691,25.2707359 C29.5038028,26.5753386 28.2858259,27.4521329 26.9284587,27.8135704 C25.5731951,28.1743529 24.0795376,28.0211977 22.7686708,27.2691763 C21.4540396,26.5148625 20.5724152,25.3020656 20.2083839,23.9520512 C19.8437991,22.5998536 19.9980252,21.1094561 20.7579737,19.8012511 C21.5159293,18.4965392 22.7337955,17.6198541 24.0911627,17.2584166 Z" id="路径" stroke="#FF2D55" stroke-width="2.2"></path>
                <line x1="8.85720698" y1="17.3568813" x2="11.7875037" y2="12.9903758" id="路径" stroke="#FF2D55" stroke-width="2.2"></line>
                <polygon id="路径" stroke="#FF2D55" stroke-width="1.1" fill="#CCCCCC" fill-rule="nonzero" points="13.8393867 22.2692 19.375142 22.2692 19.375142 23.3608264 13.8393867 23.3608264"></polygon>
            </g>
        </g>
    </g>
</svg>