<?xml version="1.0" encoding="UTF-8"?>
<svg width="62px" height="30px" viewBox="0 0 62 30" version="1.1" xmlns="http://www.w3.org/2000/svg" xmlns:xlink="http://www.w3.org/1999/xlink">
    <!-- Generator: Sketch 59.1 (86144) - https://sketch.com -->
    <title>Logo_small</title>
    <desc>Created with Sketch.</desc>
    <g id="🔪Slice" stroke="none" stroke-width="1" fill="none" fill-rule="evenodd">
        <g id="Navigation-&amp;-Footer" transform="translate(-576.000000, -304.000000)">
            <g id="Group-13" transform="translate(120.000000, 262.000000)">
                <g id="Group-9" transform="translate(456.000000, 0.000000)">
                    <g id="Nav/Common/LogoBlack-Small" transform="translate(0.000000, 42.000000)">
                        <g id="Group" transform="translate(0.000000, 1.000000)">
                            <path d="M22.7503,14.2196 L19.9063,14.2196 L19.9063,17.0636 L5.3083,17.0636 L5.3083,5.3086 L19.9063,5.3086 L19.9063,8.1526 L22.7503,8.1526 L22.7503,14.2196 Z M25.2143,2.8436 L22.3703,2.8436 L22.3703,0.0006 L2.8433,0.0006 L2.8433,5.6876 L0.0003,5.6876 L0.0003,28.0596 L2.4643,28.0596 L2.4643,25.2166 L5.3083,25.2166 L5.3083,22.3716 L16.6833,22.3716 L16.6833,19.5286 L19.5273,19.5286 L25.2153,19.5276 L25.2153,16.6846 L28.0583,16.6846 L28.0583,5.6886 L25.2153,5.6886 L25.2143,2.8436 Z" id="Fill-55" fill="#000000"></path>
                            <polygon id="Fill-56" fill="#000000" points="58.8861 11.3763 47.8891 11.3763 47.8891 16.6843 56.4211 16.6843 56.4211 19.9073 53.5781 19.9073 53.5781 22.7513 41.8231 22.7513 41.8231 19.9073 38.9791 19.9073 38.9791 8.1533 41.8231 8.1523 41.8231 5.3093 53.5781 5.3093 53.5781 8.1523 58.8861 8.1523 58.8861 2.8443 53.1981 2.8443 53.1981 0.0003 42.2021 0.0003 42.2021 2.8433 36.5141 2.8443 36.5141 8.5313 33.6701 8.5313 33.6701 22.3723 39.3581 22.3733 39.3581 28.0593 53.1981 28.0593 53.1981 25.2163 58.8861 25.2153 58.8861 19.5293 61.7301 19.5293 61.7301 14.2193 58.8861 14.2193"></polygon>
                            <polygon id="Fill-57" fill="#E61973" points="33.67 8.5308 36.514 8.5308 36.514 5.6888 33.67 5.6888"></polygon>
                            <polygon id="Fill-58" fill="#FFB919" points="39.359 2.8438 42.203 2.8438 42.203 0.0008 39.359 0.0008"></polygon>
                            <polygon id="Fill-59" fill="#14E691" points="58.886 14.2188 61.73 14.2188 61.73 11.3758 58.886 11.3758"></polygon>
                            <polygon id="Fill-60" fill="#FF1928" points="58.886 22.3718 61.73 22.3718 61.73 19.5288 58.886 19.5288"></polygon>
                            <polygon id="Fill-61" fill="#FF4B00" points="53.198 28.0598 56.042 28.0598 56.042 25.2168 53.198 25.2168"></polygon>
                            <polygon id="Fill-62" fill="#1987E6" points="36.515 25.2158 39.359 25.2158 39.359 22.3728 36.515 22.3728"></polygon>
                            <polygon id="Fill-63" fill="#6414E6" points="0 5.6878 2.844 5.6878 2.844 2.8448 0 2.8448"></polygon>
                            <polygon id="Fill-64" fill="#FF6E00" points="22.37 2.8438 25.214 2.8438 25.214 0.0008 22.37 0.0008"></polygon>
                            <polygon id="Fill-65" fill="#E619DC" points="16.683 22.3718 19.527 22.3718 19.527 19.5288 16.683 19.5288"></polygon>
                            <polygon id="Fill-66" fill="#19BEE6" points="2.464 28.0598 5.308 28.0598 5.308 25.2168 2.464 25.2168"></polygon>
                        </g>
                    </g>
                </g>
            </g>
        </g>
    </g>
</svg>