<?xml version="1.0" encoding="UTF-8"?>
<svg width="20px" height="20px" viewBox="0 0 20 20" version="1.1" xmlns="http://www.w3.org/2000/svg" xmlns:xlink="http://www.w3.org/1999/xlink">
    <!-- Generator: Sketch 63.1 (92452) - https://sketch.com -->
    <title>Mail</title>
    <desc>Created with Sketch.</desc>
    <g id="🔪Slice" stroke="none" stroke-width="1" fill="none" fill-rule="evenodd" opacity="0.400000006">
        <g id="Navigation-&amp;-Footer" transform="translate(-120.000000, -638.000000)" fill="#0078D7" fill-rule="nonzero">
            <g id="Group-7" transform="translate(120.000000, 596.000000)">
                <g id="Group" transform="translate(0.000000, 42.000000)">
                    <g id="Common/Icon20/Mail-Copy-2">
                        <path d="M17,2.5 C18.3807119,2.5 19.5,3.61928813 19.5,5 L19.5,15 C19.5,16.3807119 18.3807119,17.5 17,17.5 L3,17.5 C1.61928813,17.5 0.5,16.3807119 0.5,15 L0.5,5 C0.5,3.61928813 1.61928813,2.5 3,2.5 L17,2.5 Z M18.5,7.297 L10,10.4558441 L1.5,7.297 L1.5,15 C1.5,15.8284271 2.17157288,16.5 3,16.5 L17,16.5 C17.8284271,16.5 18.5,15.8284271 18.5,15 L18.5,7.297 Z M17,3.5 L3,3.5 C2.17157288,3.5 1.5,4.17157288 1.5,5 L1.5,6.231 L10,9.38908126 L18.5,6.231 L18.5,5 C18.5,4.17157288 17.8284271,3.5 17,3.5 Z" id="Shape"></path>
                    </g>
                </g>
            </g>
        </g>
    </g>
</svg>