<?xml version="1.0" encoding="UTF-8"?>
<svg width="213px" height="213px" viewBox="0 0 213 213" version="1.1" xmlns="http://www.w3.org/2000/svg" xmlns:xlink="http://www.w3.org/1999/xlink">
    <title>sphere text</title>
    <defs>
        <polygon id="path-1" points="0 0 4.3450218 0 4.3450218 9.1536938 0 9.1536938"></polygon>
        <polygon id="path-3" points="0 0 9.1788861 0 9.1788861 4.35328636 0 4.35328636"></polygon>
    </defs>
    <g id="Symbols" stroke="none" stroke-width="1" fill="none" fill-rule="evenodd">
        <g id="home/2" transform="translate(23.000000, 23.000000)">
            <g id="sphere-text" transform="translate(83.500000, 83.500000) rotate(30.000000) translate(-83.500000, -83.500000) translate(6.000000, 6.000000)">
                <path d="M9.68867113,50.089023 L9.45389446,50.6698286 L6.58587144,49.5104217 L6.83938616,48.8811238 C6.93528086,48.6441728 7.04440241,48.477756 7.16675082,48.3796693 C7.28909922,48.2815826 7.43018567,48.229784 7.59001017,48.2198652 C7.74983466,48.2110484 7.92068154,48.2386008 8.10144855,48.3025225 C8.28221557,48.3675463 8.47180049,48.4391826 8.66910107,48.5185337 C8.88293522,48.6044973 9.07362238,48.6882567 9.24226478,48.7709141 C9.41200942,48.8535714 9.54317573,48.950556 9.63576371,49.0607658 C9.73606736,49.175384 9.7955882,49.3142483 9.81212177,49.4762567 C9.82865534,49.6404692 9.78787254,49.8443573 9.68867113,50.089023 L9.68867113,50.089023 Z M13.8870953,52.4618396 L10.591404,51.1294034 L10.8405097,50.5144328 C11.0234812,50.0636748 11.0929222,49.6691238 11.0510372,49.3307798 C11.0091521,48.9913336 10.8823948,48.6827462 10.6740718,48.4050176 C10.5021227,48.1702708 10.2937997,47.9785057 10.0513074,47.8286204 C9.80771282,47.6798372 9.49688173,47.5299519 9.1177119,47.3756582 C8.6117847,47.1717701 8.19513878,47.0483352 7.86667188,47.0075576 C7.53820499,46.9667799 7.22186271,47.0042513 6.91764505,47.1210736 C6.61342739,47.2367939 6.3665261,47.4032107 6.17694118,47.621426 C5.9884585,47.8385393 5.82642953,48.1140638 5.69195651,48.4457952 L4.95786607,50.2587461 L13.3988039,53.6708409 L13.8870953,52.4618396 Z" id="Fill-1" fill="#1D1D1B"></path>
                <path d="M8.25763566,45.4126016 C8.45273177,45.6528589 8.71506439,45.8523386 9.04353129,46.0154491 L13.3543837,48.1447021 C13.6982819,48.3155272 14.0201354,48.402593 14.3210463,48.4092056 C14.6230595,48.4158181 14.9008235,48.3629175 15.1554404,48.2505035 C15.4144663,48.1502126 15.6437318,48.0047357 15.8421346,47.8129706 C16.0416397,47.6212056 16.200362,47.4073986 16.3171992,47.1704476 C16.4340364,46.9334966 16.5078863,46.6778099 16.5398512,46.4022854 C16.5707139,46.1278631 16.5486691,45.8545428 16.4759214,45.5801205 C16.4053782,45.3178212 16.2764164,45.0687471 16.0879337,44.8340003 C15.9005533,44.5981513 15.6349139,44.3953653 15.2910157,44.2256423 L12.7239036,42.9560256 L11.6866978,45.0544198 L12.7183924,45.563589 L13.1769234,44.6356227 L14.713443,45.3938659 C14.9956159,45.5338324 15.1653606,45.7145764 15.2215747,45.9383023 C15.2788911,46.160926 15.2535396,46.3791414 15.1477248,46.5929484 C15.0419099,46.8067553 14.8831877,46.9588448 14.6726602,47.0492169 C14.4610306,47.1395889 14.2141293,47.1153427 13.9308541,46.9753763 L9.62110394,44.8461233 C9.33893104,44.7061569 9.16918641,44.5254129 9.11297227,44.3027891 C9.05675814,44.0801654 9.08210961,43.86195 9.18682221,43.6470409 C9.29263705,43.4332339 9.45135931,43.2811444 9.66188675,43.1907724 C9.87351642,43.1004004 10.1204177,43.1246466 10.4036929,43.264613 L10.8159298,43.4685011 L11.3935025,42.2991753 L10.9812655,42.0952872 C10.6527986,41.9332788 10.3331496,41.8473152 10.0256253,41.8373963 C9.7158964,41.8274774 9.43262126,41.8726634 9.17359536,41.9729543 C8.9189784,42.0842662 8.6919174,42.2363557 8.49241234,42.4270186 C8.29290728,42.6187837 8.13528726,42.8325906 8.01845004,43.0695417 C7.90051059,43.3075948 7.82666065,43.5621794 7.79579798,43.8366017 C7.76493532,44.1110241 7.78367337,44.379936 7.85421659,44.6433373 C7.92806653,44.9177597 8.06253956,45.1734464 8.25763566,45.4126016" id="Fill-3" fill="#1D1D1B"></path>
                <polygon id="Fill-5" fill="#1D1D1B" points="19.5206332 41.2259524 14.8967452 38.1819583 14.9099721 38.1610184 18.8813352 39.2432785 19.2406648 38.6988422 16.6823706 35.4696956 16.6955974 35.4487557 21.3205877 38.4927499 22.0381445 37.4027751 14.4338053 32.398149 13.7371909 33.4550608 16.8499108 37.4931471 16.8355817 37.5151891 11.888738 36.263206 11.1998393 37.3101989 18.8041785 42.3148251"></polygon>
                <path d="M21.0028125,33.5768426 L18.813768,31.0276903 L18.8303016,31.0078526 L21.8129573,32.5540958 L21.0028125,33.5768426 Z M23.118007,36.0345207 L21.8217752,34.5191362 L22.9262176,33.1271867 L24.6986162,34.0408258 L25.5076588,33.018079 L17.108606,28.9601548 L16.4340364,29.8109744 L22.3078622,37.0561654 L23.118007,36.0345207 Z" id="Fill-7" fill="#1D1D1B"></path>
                <polygon id="Fill-9" fill="#1D1D1B" points="20.1131963 27.2860683 25.9936355 32.5243392 26.8621989 31.5500847 20.9806575 26.3118138 21.983694 25.1865719 21.0677343 24.3699175 18.1930979 27.5957577 19.1090576 28.4124122"></polygon>
                <polygon id="Fill-11" fill="#1D1D1B" points="29.0812243 29.2180457 26.2473706 26.3206306 27.3992092 25.1953887 30.2330629 28.0928039 31.1655561 27.1802669 24.8001323 20.6723793 23.8687412 21.5838142 26.5945756 24.3721216 25.442737 25.4984656 22.7158004 22.7112602 21.7833071 23.6226951 28.148731 30.1294806"></polygon>
                <path d="M29.271691,19.4379195 L32.3645705,23.3823276 C32.6224942,23.7107528 32.8848268,23.9399891 33.1548751,24.0700366 C33.4249234,24.1989821 33.6927672,24.2684142 33.9595088,24.277231 C34.2251481,24.2838436 34.4808673,24.2364534 34.7233596,24.1328562 C34.9669542,24.0281569 35.1851973,23.9003136 35.3802934,23.747122 C35.6084567,23.5685821 35.785917,23.3569794 35.9126743,23.1112115 C36.0394317,22.8643416 36.1165883,22.6075528 36.1419398,22.3375389 C36.1694957,22.0675249 36.1463487,21.8008172 36.0758055,21.5363138 C36.0041601,21.2740145 35.8818117,21.0304509 35.7087603,20.8089292 L35.3615554,20.366988 L34.3353719,21.1715194 L34.6120336,21.5241907 C34.7211551,21.6652592 34.7939028,21.7975109 34.82697,21.9231501 C34.8600371,22.0487892 34.8677528,22.1623053 34.850117,22.2625962 C34.8247655,22.3683976 34.7828805,22.4642801 34.7233596,22.5480396 C34.6660433,22.631799 34.6021135,22.7001291 34.5348769,22.7530298 C34.3001003,22.9370801 34.0818572,22.9943892 33.8823521,22.9238549 C33.6806426,22.8544228 33.4987733,22.7155584 33.3356421,22.5072619 L30.4643124,18.8449909 C30.2747275,18.6036315 30.1600947,18.3710889 30.1215164,18.147363 C30.0807336,17.9247392 30.1887529,17.7131365 30.4422676,17.5125547 C30.6373637,17.3604652 30.8500956,17.313075 31.0804634,17.3714861 C31.3097288,17.4298973 31.5026205,17.5599449 31.6613427,17.7616288 L31.9291865,18.102177 L32.95537,17.2987477 L32.64013,16.8953799 C32.4461361,16.6474079 32.2234841,16.4501324 31.9732761,16.3046555 C31.7252725,16.1591785 31.4651444,16.0677044 31.1973006,16.029131 C30.6472839,15.9508821 30.1314365,16.1007674 29.6486563,16.4787869 C29.4006528,16.6727561 29.2066589,16.8920736 29.067777,17.1367393 C28.928895,17.381405 28.8440227,17.6348875 28.8120578,17.8982889 C28.7800929,18.1616903 28.8021376,18.4250916 28.8803965,18.6895951 C28.9575532,18.9540986 29.0876172,19.2031727 29.271691,19.4379195" id="Fill-13" fill="#1D1D1B"></path>
                <path d="M34.681695,14.6916251 C34.7445226,14.4712055 34.8745867,14.2937678 35.0718872,14.161516 C35.2713923,14.0281622 35.4852265,13.9763636 35.7133897,14.002814 C35.9415529,14.0292643 36.1421602,14.1736391 36.3174161,14.4359384 L38.990343,18.4321451 C39.1655988,18.6944443 39.2218129,18.9358038 39.1589854,19.1573254 C39.09726,19.377745 38.967196,19.5540806 38.7687932,19.6874345 C38.5703903,19.8196862 38.3576584,19.8725869 38.1294952,19.8461366 C37.9013319,19.8185841 37.6985202,19.6742093 37.5232643,19.41191 L34.8514397,15.4168055 C34.6761838,15.1545062 34.6188675,14.9131468 34.681695,14.6916251 M33.7668376,16.1408837 L36.4397645,20.1370904 C36.6524964,20.4555967 36.8883753,20.6936498 37.146299,20.8490456 C37.4042226,21.0055435 37.6720664,21.0970176 37.9487282,21.1278763 C38.2220832,21.1708581 38.4932337,21.157633 38.7621797,21.0915071 C39.0300235,21.0242791 39.2736181,20.9173756 39.4940657,20.7718987 C39.713411,20.6242176 39.9052004,20.4401673 40.0694339,20.2175435 C40.2325651,19.9949198 40.352709,19.7469478 40.4243545,19.4725254 C40.4948977,19.2102261 40.5081246,18.9302933 40.4618306,18.6316248 C40.4166388,18.3340584 40.287677,18.025471 40.0749451,17.7069647 L37.4020182,13.710758 C37.1981042,13.406579 36.9644297,13.1729343 36.7020971,13.0109259 C36.4397645,12.8467134 36.1719207,12.7442183 35.8974634,12.7023385 C35.6208017,12.6725819 35.3474467,12.6913176 35.0796029,12.7574434 C34.8117591,12.8235693 34.5670623,12.9304728 34.3477169,13.0770518 C34.1283716,13.2236308 33.9365822,13.4087832 33.7723488,13.631407 C33.6081153,13.8540308 33.4912781,14.0964923 33.4207349,14.3587916 C33.3479872,14.6321118 33.3358626,14.9219635 33.3865655,15.2272446 C33.4361662,15.5325257 33.5629236,15.8367047 33.7668376,16.1408837" id="Fill-15" fill="#1D1D1B"></path>
                <polygon id="Fill-17" fill="#1D1D1B" points="45.4974044 17.0626783 44.851493 15.9297218 42.6073366 17.2070531 38.7472995 10.4302537 37.6153012 11.076083 42.1201475 18.985839"></polygon>
                <polygon id="Fill-19" fill="#1D1D1B" points="49.6221991 15.0521213 49.0534443 13.8783871 46.7299268 15.003629 43.3306251 7.98547012 42.1567418 8.55415259 46.123696 16.7460456"></polygon>
                <path d="M49.6770905,8.02845193 L51.4968853,10.8531286 L50.2877303,11.3380517 L49.6539435,8.03837081 L49.6770905,8.02845193 Z M48.1912738,5.80111225 L49.6914196,15.0058332 L50.9016768,14.5209101 L50.5291204,12.5624823 L52.1802728,11.9023257 L53.2637726,13.5742081 L54.4751321,13.0892851 L49.1998215,5.39664236 L48.1912738,5.80111225 Z" id="Fill-21" fill="#1D1D1B"></path>
                <path d="M56.8922296,10.8331807 C56.7731879,10.9511051 56.5880119,11.0502939 56.3355994,11.1307471 L55.7988096,11.299368 L54.9214282,8.51987735 L55.4703427,8.34684799 C55.6974037,8.27521163 55.8891931,8.2432508 56.0435064,8.25206758 C56.1989219,8.26198646 56.3344972,8.31047876 56.4524367,8.39864659 C56.560456,8.48901861 56.653044,8.61135147 56.7290984,8.76674726 C56.8051528,8.92214305 56.8767982,9.10949968 56.9462392,9.32881714 C57.0123735,9.53931782 57.0663832,9.73769543 57.1060637,9.92174576 C57.1468465,10.1057961 57.1512555,10.273315 57.1192906,10.4265066 C57.0873257,10.5808003 57.0112713,10.7163583 56.8922296,10.8331807 L56.8922296,10.8331807 Z M53.8202926,5.03283987 L54.3328332,4.87193359 C54.7472746,4.74078395 55.0647191,4.74849863 55.2840645,4.89177135 C55.5045121,5.03724826 55.6753589,5.30505803 55.7999118,5.69520065 C55.9244647,6.09305796 55.9498162,6.41817682 55.8726595,6.67165932 C55.7955029,6.92293762 55.5497038,7.11470264 55.1352624,7.24585228 L54.5742233,7.42218793 L53.8202926,5.03283987 Z M58.0705219,8.81193327 C57.9250265,8.34905219 57.7398505,8.00519767 57.5160962,7.78036971 C57.2934442,7.55554176 57.014578,7.42108583 56.6783954,7.37479772 C56.9120699,7.12351942 57.060872,6.86122014 57.1281085,6.58900198 C57.1622779,6.44572926 57.172198,6.28482298 57.1567667,6.11179363 C57.1435398,5.93766217 57.0983481,5.73267198 57.0233959,5.49572095 L56.9230922,5.17941888 C56.833811,4.89507764 56.7081558,4.63277836 56.5483314,4.39252104 C56.3874046,4.15336581 56.1845928,3.9604987 55.9432027,3.81391969 C55.6996082,3.66734068 55.4185375,3.57696866 55.0999908,3.54390572 C54.7803418,3.50974069 54.4221144,3.5560288 54.0231043,3.68166795 L52.2066163,4.25475881 L54.9478819,12.9348812 L56.6420216,12.4003637 C57.4554731,12.143575 57.9823429,11.7545344 58.2248352,11.2299359 C58.4662253,10.7075415 58.4662253,10.0639164 58.2248352,9.3001626 L58.0705219,8.81193327 Z" id="Fill-23" fill="#1D1D1B"></path>
                <path d="M62.3130356,9.35659001 C62.1774603,9.54174244 61.9922843,9.660769 61.7597121,9.71477179 C61.5271399,9.76877459 61.3099991,9.74452844 61.1049828,9.63762495 C60.9021711,9.53182356 60.7643913,9.32683336 60.6916436,9.01824598 L59.6004281,4.33763657 C59.5287826,4.03015128 59.5607475,3.78438347 59.697425,3.59923103 C59.8341025,3.4140786 60.0181763,3.29505204 60.2507485,3.24104925 C60.4833207,3.18594436 60.7015638,3.2123947 60.9054778,3.31819609 C61.1093918,3.42289538 61.2471715,3.63008977 61.318817,3.93647297 L62.4100325,8.61818447 C62.481678,8.92456766 62.4497131,9.17143757 62.3130356,9.35659001 L62.3130356,9.35659001 Z M62.588595,3.64000865 C62.5059272,3.28403106 62.3703519,2.98315836 62.1818693,2.73849264 C61.9933866,2.49272483 61.7784502,2.30316401 61.5359578,2.16760598 C61.2879543,2.04086473 61.0267239,1.96151369 60.7522667,1.92955285 C60.4778095,1.89648992 60.2121701,1.91081719 59.9542465,1.97143257 C59.697425,2.03094585 59.4527282,2.13564514 59.220156,2.28663254 C58.9886861,2.43761994 58.79359,2.62277237 58.6348677,2.84319194 C58.4706342,3.07463248 58.3571037,3.34134015 58.2964807,3.64331495 C58.2358576,3.94639185 58.2479822,4.27702119 58.33065,4.63410088 L59.4218656,9.31471029 C59.5089423,9.68832145 59.6456198,9.99360254 59.8318981,10.2305536 C60.0181763,10.4675046 60.2353171,10.6482486 60.4844229,10.7738878 C60.7269152,10.9094458 60.9837367,10.9943074 61.2581939,11.0273703 C61.5326511,11.0593311 61.7982905,11.0450039 62.0562141,10.9854906 C62.3130356,10.9248752 62.5588346,10.8201759 62.7903046,10.6691885 C63.0228768,10.5193032 63.2201774,10.3286403 63.385513,10.0971997 C63.5442353,9.87678017 63.6544591,9.61888928 63.7172866,9.32462917 C63.7801142,9.02926696 63.7668874,8.69533132 63.6798106,8.32282226 L62.588595,3.64000865 Z" id="Fill-25" fill="#1D1D1B"></path>
                <path d="M65.6692397,5.05256742 L65.2404692,2.24772849 L65.9106298,2.14523339 C66.3570362,2.07690333 66.6788897,2.14853968 66.875088,2.36014246 C66.9698805,2.47476064 67.0426282,2.61693125 67.0944333,2.78445012 C67.1473408,2.95417319 67.190328,3.15144869 67.2244974,3.37958294 C67.2586668,3.60661509 67.2774048,3.80940109 67.2785071,3.98573674 C67.2796093,4.16207239 67.2553601,4.31526398 67.2068616,4.44310733 C67.148443,4.57205277 67.0569573,4.67895626 66.9324044,4.7627157 C66.805647,4.84647513 66.6303912,4.90598841 66.4022279,4.94015344 L65.6692397,5.05256742 Z M68.4016875,9.73097263 L69.7673602,9.52267615 L67.7491627,5.62676038 C68.1272303,5.33690866 68.3697226,4.99305414 68.4777419,4.59850312 C68.5857612,4.20285001 68.5989881,3.73886683 68.5174225,3.20765568 C68.2484764,1.44760548 67.3556637,0.682749595 65.8389844,0.914190135 L63.7656749,1.23159431 L65.1412678,10.2291208 L66.4308861,10.0329474 L65.8433933,6.18993236 L66.6138576,6.07310999 L68.4016875,9.73097263 Z" id="Fill-27" fill="#1D1D1B"></path>
                <path d="M71.446289,6.20205544 L71.8342768,2.86490326 L71.858526,2.86269907 L72.7469297,6.10286663 L71.446289,6.20205544 Z M74.9139294,9.13032932 L72.1958108,0.208847535 L71.1112087,0.291504871 L69.7752964,9.52157405 L71.0759371,9.42238525 L71.3096115,7.44301757 L73.0820101,7.30856164 L73.6132887,9.22951813 L74.9139294,9.13032932 Z" id="Fill-29" fill="#1D1D1B"></path>
                <g id="Group-33" transform="translate(73.914089, 0.000000)">
                    <mask id="mask-2" fill="white">
                        <use xlink:href="#path-1"></use>
                    </mask>
                    <g id="Clip-32"></g>
                    <polygon id="Fill-31" fill="#1D1D1B" mask="url(#mask-2)" points="1.53211068 1.27920493 1.67870832 9.1536938 2.98155352 9.12834555 2.83605811 1.25495878 4.3450218 1.22630424 4.3218748 -0.000330629344 0 0.0801225109 0.0242492338 1.30675738"></polygon>
                </g>
                <path d="M80.2266059,2.21984541 C80.2420372,1.90574754 80.3401364,1.67761329 80.5220056,1.53654477 C80.7038749,1.39657835 80.9133001,1.33155458 81.1513835,1.34367765 C81.3905691,1.35469863 81.5922786,1.43956016 81.760921,1.59716015 C81.927359,1.75365804 82.0034134,1.99060907 81.9890843,2.30470694 L81.7565121,7.10654711 C81.7410808,7.42174709 81.6429816,7.64988133 81.4611123,7.78984776 C81.2792431,7.93091628 81.0698179,7.99483795 80.8306323,7.98271487 C80.5925489,7.97169389 80.3886349,7.88793446 80.2221969,7.73033447 C80.0546568,7.57273449 79.9786024,7.33688556 79.9940337,7.02058348 L80.2266059,2.21984541 Z M79.3139529,8.65279034 C79.509049,8.85006585 79.7339055,9.00105325 79.9896247,9.10795674 C80.2453439,9.21375813 80.5043698,9.27216931 80.7678047,9.28539449 C81.0312396,9.29861966 81.2957767,9.26445463 81.5603137,9.18289939 C81.8237486,9.10244625 82.0673432,8.97350081 82.288893,8.79606306 C82.5016249,8.62634 82.6801875,8.40922673 82.8201717,8.14362115 C82.9601559,7.87691348 83.0406192,7.55289673 83.0593573,7.16936669 L83.2908272,2.36862862 C83.3084631,2.00273214 83.2610668,1.67540909 83.1464341,1.38776157 C83.0329036,1.10121613 82.877488,0.859856713 82.6823919,0.662581205 C82.4784779,0.473020381 82.2481102,0.325339274 81.9934932,0.219537884 C81.737774,0.112634396 81.4787481,0.0531211145 81.214211,0.0398959408 C80.9507762,0.0277728649 80.6862391,0.061937897 80.4228042,0.143493135 C80.1582671,0.223946275 79.9201838,0.349585426 79.7063496,0.518206391 C79.4847998,0.695644139 79.3029305,0.920472093 79.1618441,1.19599655 C79.0207576,1.4704189 78.9413965,1.79112936 78.9226585,2.15702584 L78.6911885,6.95886601 C78.6735527,7.34129395 78.7209489,7.67192329 78.8355817,7.95075404 C78.9502144,8.22958478 79.1089367,8.46322952 79.3139529,8.65279034 L79.3139529,8.65279034 Z" id="Fill-34" fill="#1D1D1B"></path>
                <path d="M86.2221187,1.75376825 L86.8933816,1.83862978 C87.3419924,1.89593887 87.6307787,2.05243676 87.7619451,2.31032764 C87.8225681,2.44698777 87.8534308,2.60348566 87.8567375,2.77982131 C87.8600442,2.95615696 87.8479196,3.15784086 87.8192614,3.38597511 C87.7906032,3.61410936 87.7520249,3.81469116 87.7046287,3.98441422 C87.6572325,4.15523938 87.5922004,4.2952058 87.5095326,4.40431349 C87.4180468,4.51342117 87.3012096,4.59056802 87.1579187,4.63685613 C87.0146278,4.68314423 86.8294518,4.69196102 86.6001863,4.66330647 L85.8649936,4.56962816 L86.2221187,1.75376825 Z M85.7194982,5.71140149 L86.4932692,5.8094882 L87.2097239,9.81671584 L88.5798056,9.9908473 L87.7079354,5.69156373 C88.1499328,5.51633018 88.4783997,5.2529288 88.6900294,4.9013596 C88.9027613,4.5508925 89.0427455,4.10895127 89.109982,3.57553593 C89.3337363,1.80887314 88.6845182,0.829108184 87.1634299,0.635138969 L85.0824047,0.371737592 L83.9371796,9.40232706 L85.2312068,9.56653964 L85.7194982,5.71140149 Z" id="Fill-36" fill="#1D1D1B"></path>
                <polygon id="Fill-38" fill="#1D1D1B" opacity="0.3" points="97.3919771 2.13696766 96.4021675 1.88238306 93.2067798 14.2600436 94.1976917 14.5157303"></polygon>
                <path d="M104.82558,6.33761347 L105.45606,6.58668757 C105.694143,6.68036589 105.861683,6.78616728 105.960885,6.90850014 C106.060086,7.02973089 106.114096,7.17079941 106.125118,7.3295015 C106.135038,7.49040778 106.108585,7.66013084 106.046859,7.84197698 C105.984032,8.02272102 105.913489,8.21338395 105.836332,8.41176155 C105.75146,8.62556853 105.669894,8.81843564 105.588328,8.98705661 C105.507865,9.15788177 105.41197,9.28903141 105.302849,9.38381182 C105.188216,9.48410272 105.050436,9.5447181 104.888407,9.56345376 C104.724174,9.58108733 104.52026,9.54251391 104.274461,9.4455293 L103.692479,9.21519086 L104.82558,6.33761347 Z M103.241664,10.3569642 L103.860019,10.6016299 C104.311937,10.7790677 104.70764,10.8462956 105.046027,10.8011096 C105.384414,10.7559236 105.691939,10.6269782 105.967498,10.4142733 C106.201173,10.2412439 106.390758,10.0318453 106.538457,9.78717962 C106.685055,9.54251391 106.832755,9.23062023 106.982659,8.84929438 C107.183267,8.34232939 107.301206,7.92353222 107.338682,7.59620917 C107.37726,7.26668192 107.336478,6.95148195 107.218538,6.64730295 C107.099497,6.34422606 106.929752,6.09956034 106.710407,5.91220371 C106.491061,5.72484709 106.215502,5.566145 105.881524,5.43499536 L104.061729,4.71752968 L100.725255,13.1871514 L101.939921,13.6643597 L103.241664,10.3569642 Z" id="Fill-40" fill="#1D1D1B"></path>
                <path d="M106.031208,14.0759933 C106.026799,14.376866 106.083013,14.6545946 106.196543,14.9091792 C106.299051,15.1670701 106.446751,15.3941022 106.640745,15.5924798 C106.833637,15.7897554 107.049675,15.9451511 107.287759,16.0608714 C107.52474,16.1754896 107.781561,16.248228 108.056019,16.2768826 C108.330476,16.304435 108.604933,16.281291 108.878288,16.2063483 C109.140621,16.1336099 109.388624,16.0024602 109.622299,15.8117973 C109.857075,15.6222365 110.05658,15.3544267 110.224121,15.0105722 L111.470752,12.4316633 L109.363273,11.4133249 L108.862857,12.4481948 L109.79535,12.9000549 L109.049135,14.4418897 C108.912457,14.726231 108.73169,14.8970561 108.510141,14.9554673 C108.288591,15.0138785 108.069245,14.9907344 107.854309,14.8860351 C107.639373,14.7835401 107.485059,14.6259401 107.393574,14.4165415 C107.300986,14.2049387 107.324133,13.9591709 107.46081,13.6748297 L109.552858,9.34689154 C109.690637,9.06255031 109.870302,8.89172515 110.092954,8.83331396 C110.314504,8.77490278 110.533849,8.79804683 110.747684,8.90164403 C110.963722,9.00524122 111.115831,9.16284121 111.208419,9.37223979 C111.301007,9.58384257 111.278962,9.82961039 111.142285,10.1139516 L110.941677,10.5283404 L112.116663,11.0959208 L112.316168,10.681532 C112.475993,10.3520047 112.55866,10.0323964 112.566376,9.723809 C112.574092,9.41522161 112.526695,9.13198247 112.423085,8.87298949 C112.309555,8.61950699 112.156344,8.39467904 111.96235,8.19630143 C111.769458,7.99902592 111.553419,7.84252803 111.316438,7.72790986 C111.077253,7.61329169 110.821533,7.54055323 110.547076,7.51189869 C110.271517,7.48434624 110.003673,7.5052861 109.74134,7.57802456 C109.467985,7.65296721 109.212266,7.79072943 108.975285,7.98800494 C108.737202,8.18528045 108.537697,8.44978393 108.378974,8.77820907 L106.285825,13.1061472 C106.119387,13.4522059 106.034514,13.7762227 106.031208,14.0759933" id="Fill-42" fill="#1D1D1B"></path>
                <polygon id="Fill-44" fill="#1D1D1B" points="113.224853 19.1914905 116.226247 14.5384335 116.247189 14.5527608 115.201166 18.5335381 115.748978 18.8873115 118.954286 16.2995858 118.97633 16.312811 115.976039 20.9647658 117.071663 21.6712105 122.006382 14.0226517 120.941621 13.3371469 116.932781 16.4858403 116.911839 16.4715131 118.115483 11.513175 117.062845 10.8353848 112.129229 18.4839437"></polygon>
                <path d="M123.422648,18.3940125 L123.44359,18.410544 L121.923604,21.4060458 L120.893012,20.6070249 L123.422648,18.3940125 Z M118.454862,22.7428905 L119.958314,21.4347003 L121.361463,22.5246751 L120.464241,24.3045631 L121.493731,25.1046861 L125.475015,16.6703315 L124.617474,16.0035623 L117.426474,21.9438695 L118.454862,22.7428905 Z" id="Fill-46" fill="#1D1D1B"></path>
                <polygon id="Fill-48" fill="#1D1D1B" points="121.996462 25.5899397 122.978556 26.4484739 128.162381 20.5191877 129.297686 21.5132799 130.105626 20.589722 126.85182 17.7452075 126.044982 18.6687655 127.180287 19.6617556"></polygon>
                <polygon id="Fill-50" fill="#1D1D1B" points="125.333267 28.6475999 128.203494 25.7876561 129.342106 26.9283273 126.469674 29.7893732 127.390043 30.7129312 133.840339 24.2899052 132.91997 23.3652451 130.15666 26.1171833 129.020253 24.9765121 131.783563 22.2245739 130.863194 21.3010159 124.412898 27.7240419"></polygon>
                <path d="M130.520509,32.678192 C130.393751,32.948206 130.326515,33.2171178 130.321004,33.4827234 C130.315492,33.7494311 130.366195,34.0040157 130.473113,34.2464772 C130.578927,34.4889387 130.708991,34.706052 130.864407,34.9000212 C131.045174,35.1259513 131.257906,35.3011848 131.505909,35.4257219 C131.751708,35.5502589 132.010734,35.6252016 132.280783,35.6483456 C132.550831,35.6736939 132.817573,35.6483456 133.079905,35.5745051 C133.34334,35.5017666 133.58473,35.3761275 133.804075,35.2008939 L134.243868,34.8504268 L133.430417,33.8309863 L133.079905,34.1109192 C132.941023,34.2222311 132.807652,34.2949695 132.683099,34.3291345 C132.558547,34.3644017 132.445016,34.3732185 132.34361,34.3544828 C132.237795,34.3313387 132.141901,34.2905611 132.058131,34.2321499 C131.972156,34.1737387 131.903817,34.1120213 131.85091,34.0447933 C131.664632,33.8122507 131.605111,33.5951374 131.67345,33.3934535 C131.740686,33.1917696 131.878466,33.0088214 132.085687,32.8435067 L135.721969,29.9405811 C135.962257,29.748816 136.192625,29.6308916 136.416379,29.5901139 C136.639031,29.5482342 136.851763,29.6540356 137.054575,29.906416 C137.207786,30.1003852 137.256285,30.311988 137.201173,30.5423265 C137.144959,30.7726649 137.017099,30.9666341 136.817594,31.1264383 L136.477002,31.3975544 L137.291556,32.4169948 L137.691669,32.0984886 C137.937468,31.9012131 138.132564,31.6774872 138.275855,31.4262089 C138.419146,31.1760327 138.508427,30.9148355 138.544801,30.6470258 C138.618651,30.0970789 138.464337,29.5823993 138.080758,29.1029867 C137.88456,28.8561168 137.661908,28.6643518 137.417211,28.5276917 C137.171412,28.3910315 136.917897,28.3083742 136.65336,28.2797197 C136.389926,28.2488609 136.126491,28.2753113 135.863056,28.3546623 C135.598519,28.4340133 135.351617,28.5673672 135.117943,28.7525196 L131.201692,31.8802732 C130.874327,32.1414704 130.648368,32.407076 130.520509,32.678192" id="Fill-52" fill="#1D1D1B"></path>
                <path d="M139.914221,34.1214993 C140.135771,34.1821147 140.314333,34.309958 140.448806,34.5083356 C140.583279,34.7045091 140.638391,34.918316 140.614142,35.1464503 C140.588791,35.3745845 140.4455,35.5773705 140.185372,35.7548083 L136.214008,38.4626626 C135.952778,38.6412024 135.711388,38.6985115 135.489838,38.6389982 C135.268288,38.5783829 135.090828,38.4494374 134.956355,38.2521619 C134.821882,38.0548864 134.76677,37.8421815 134.792121,37.6140473 C134.816371,37.385913 134.958559,37.1820249 135.21979,37.0045872 L139.191153,34.2967329 C139.451281,34.1192951 139.692671,34.0608839 139.914221,34.1214993 L139.914221,34.1214993 Z M134.484597,35.9278376 C134.168255,36.1438488 133.932376,36.3819019 133.780267,36.6408949 C133.625954,36.8998879 133.53557,37.1676977 133.508014,37.4454263 C133.467232,37.7198487 133.482663,37.9909647 133.552104,38.2576724 C133.620443,38.5254822 133.729564,38.7690458 133.878366,38.9872612 C134.027168,39.2043744 134.213447,39.3950373 134.437201,39.5581478 C134.660955,39.7190541 134.911163,39.8358765 135.18562,39.9053086 C135.449055,39.9747408 135.729024,39.9835576 136.026628,39.9361674 C136.324232,39.8876751 136.630654,39.7554233 136.949201,39.5405143 L140.920564,36.8326599 C141.222577,36.6254655 141.454047,36.3907187 141.614974,36.1262152 C141.774799,35.8628139 141.875102,35.5927999 141.914783,35.3183775 C141.943441,35.041751 141.922498,34.7695328 141.85416,34.5017231 C141.783616,34.2350154 141.675597,33.9914518 141.526795,33.7732364 C141.377993,33.5539189 141.190612,33.3643581 140.96796,33.2023497 C140.743104,33.0414435 140.499509,32.9257232 140.237177,32.8573931 C139.961617,32.7868589 139.671729,32.7780421 139.367511,32.8309428 C139.064396,32.8838435 138.760178,33.0127889 138.457063,33.2199833 L134.484597,35.9278376 Z" id="Fill-54" fill="#1D1D1B"></path>
                <polygon id="Fill-56" fill="#1D1D1B" points="137.641958 44.9562229 138.768445 44.3004747 137.471111 42.0676245 144.2135 38.1485647 143.557668 37.0211187 135.688792 41.5959267"></polygon>
                <polygon id="Fill-58" fill="#1D1D1B" points="139.67746 49.0396055 140.846935 48.4610042 139.699505 46.1465988 146.686591 42.6827053 146.107916 41.5144816 137.952458 45.5580785"></polygon>
                <path d="M146.704227,49.029907 L146.714147,49.0530511 L143.906747,50.8990649 L143.41074,49.694472 L146.704227,49.029907 Z M140.232988,50.3369951 L142.187256,49.9479545 L142.86403,51.5911824 L141.200753,52.6899739 L141.69676,53.8956689 L149.342984,48.5526987 L148.929645,47.5486876 L139.736981,49.1313 L140.232988,50.3369951 Z" id="Fill-60" fill="#1D1D1B"></path>
                <path d="M146.26719,54.3003592 L146.44465,54.8481018 C146.519602,55.0740319 146.552669,55.2657969 146.544954,55.4211927 C146.536136,55.5754864 146.488739,55.7121465 146.401663,55.830071 C146.312381,55.9391787 146.191135,56.032857 146.03572,56.1111059 C145.881406,56.1871507 145.695128,56.2609912 145.476885,56.3337297 C145.266358,56.4009576 145.069057,56.4571646 144.884983,56.4990443 C144.70091,56.539822 144.533369,56.5464345 144.379056,56.5155758 C144.225845,56.4847171 144.089167,56.4097744 143.971228,56.292952 C143.852186,56.1739255 143.751883,55.9887731 143.670317,55.7385968 L143.495061,55.2029773 L146.26719,54.3003592 Z M149.743648,53.1685048 L149.911188,53.6798781 C150.045661,54.0931648 150.041252,54.410569 149.897961,54.6309885 C149.75467,54.8525102 149.489031,55.0266417 149.098839,55.1522808 C148.702033,55.2834305 148.376873,55.3098808 148.125563,55.2360402 C147.872048,55.1610976 147.678054,54.917534 147.543581,54.5042473 L147.36061,53.9443816 L149.743648,53.1685048 Z M142.401641,56.0571031 C142.665076,56.867145 143.059677,57.3906415 143.585445,57.6286946 C144.111212,57.8645435 144.754919,57.859033 145.515463,57.611061 L146.002652,57.4523589 C146.46449,57.3024736 146.806184,57.115117 147.028836,56.8902891 C147.25259,56.6654611 147.384859,56.3844262 147.427846,56.0471842 C147.681361,56.2786248 147.944796,56.4252038 148.217048,56.4891255 C148.361442,56.5232905 148.522368,56.5310052 148.69542,56.5155758 C148.869573,56.4990443 149.07459,56.4516541 149.309366,56.3756094 L149.625708,56.2731143 C149.910086,56.1805381 150.170214,56.0526947 150.408297,55.8895842 C150.647483,55.7275759 150.83817,55.5236878 150.982563,55.2801242 C151.126956,55.0354584 151.215136,54.7533214 151.245998,54.4348151 C151.275759,54.1152068 151.226158,53.757025 151.097196,53.3591677 L150.507499,51.548421 L141.851625,54.3675872 L142.401641,56.0571031 Z" id="Fill-62" fill="#1D1D1B"></path>
                <path d="M151.59651,59.5816119 C151.653826,59.8130525 151.628475,60.0312678 151.525967,60.236258 C151.422356,60.4412482 151.216238,60.5812146 150.909816,60.6561573 L146.238531,61.7891138 C145.931007,61.8629544 145.685208,61.8331978 145.500032,61.6987418 C145.313754,61.5642859 145.191405,61.3802356 145.136293,61.148795 C145.078977,60.9162524 145.102124,60.698037 145.206837,60.4930468 C145.310447,60.2891587 145.515463,60.1491923 145.822988,60.0742496 L150.494272,58.9412931 C150.800694,58.8674525 151.046493,58.8972092 151.233874,59.0316651 C151.41905,59.166121 151.540296,59.3490693 151.59651,59.5816119 M150.186748,57.6738806 L145.514361,58.8068372 C145.142907,58.8972092 144.837587,59.0371756 144.60281,59.2256343 C144.368034,59.4140931 144.188369,59.6334105 144.064918,59.8813825 C143.931547,60.1249461 143.849982,60.3839391 143.819119,60.6594636 C143.789359,60.9338859 143.805892,61.1994915 143.867618,61.4562803 C143.930445,61.7130691 144.038465,61.9555306 144.189471,62.1869711 C144.342682,62.4173096 144.535574,62.6145851 144.768146,62.7765935 C144.989696,62.9330914 145.24762,63.0421991 145.544122,63.1017123 C145.838419,63.1612256 146.172397,63.1457962 146.546056,63.0554242 L151.21734,61.9224677 C151.573363,61.836504 151.873172,61.6976397 152.116766,61.5069768 C152.359258,61.3163139 152.548843,61.1003027 152.682214,60.8567391 C152.806767,60.607665 152.882821,60.3453657 152.912582,60.0709433 C152.943445,59.7954189 152.926911,59.5298133 152.864083,59.2741266 C152.802358,59.0162357 152.694339,58.7737742 152.54223,58.5434358 C152.390121,58.3130973 152.202741,58.1191281 151.981191,57.9615281 C151.747516,57.7995198 151.480775,57.6882079 151.176557,57.6308988 C150.873442,57.5735897 150.54277,57.5868149 150.186748,57.6738806" id="Fill-64" fill="#1D1D1B"></path>
                <path d="M152.633054,64.558355 L152.742176,65.2262263 C152.813821,65.6725759 152.745483,65.9954906 152.534955,66.1927661 C152.421425,66.2886486 152.280338,66.3635912 152.111696,66.417594 C151.943053,66.4693926 151.745753,66.5145786 151.518692,66.55205 C151.291631,66.5895213 151.089921,66.6082569 150.912461,66.6104611 C150.736103,66.6137674 150.583994,66.5917255 150.45393,66.5432332 C150.324968,66.4859241 150.218051,66.3955521 150.132077,66.2721171 C150.047204,66.146478 149.986581,65.9712444 149.949105,65.7442123 L149.831166,65.0124193 L152.633054,64.558355 Z M144.857868,65.8191549 L148.695861,65.1964696 L148.820413,65.9657339 L145.177517,67.7875016 L145.399067,69.1496945 L149.275638,67.0975884 C149.569935,67.4723016 149.914936,67.7114569 150.311741,67.8161561 C150.708547,67.9208554 151.172589,67.9296722 151.701663,67.8426065 C153.460835,67.5582653 154.21697,66.6578513 153.971171,65.1435689 L153.636091,63.0738293 L144.649545,64.5319047 L144.857868,65.8191549 Z" id="Fill-66" fill="#1D1D1B"></path>
                <path d="M152.077637,71.1526471 L152.079841,71.1768932 L148.846977,72.0949407 L148.736754,70.7955674 L152.077637,71.1526471 Z M145.511605,70.4550191 L147.493429,70.6710303 L147.645538,72.4409994 L145.727644,72.9898441 L145.83897,74.2892174 L154.736234,71.489889 L154.643646,70.4065268 L145.400279,69.1556458 L145.511605,70.4550191 Z" id="Fill-68" fill="#1D1D1B"></path>
                <g id="Group-72" transform="translate(145.821114, 73.204423)">
                    <mask id="mask-4" fill="white">
                        <use xlink:href="#path-3"></use>
                    </mask>
                    <g id="Clip-71"></g>
                    <polygon id="Fill-70" fill="#1D1D1B" mask="url(#mask-4)" points="7.87328531 1.54183484 0 1.75894811 0.0363738507 3.06383192 7.90965916 2.84561655 7.9515442 4.35328636 9.17943722 4.31912133 9.05819105 0 7.83140027 0.0330629344"></polygon>
                </g>
                <path d="M153.437137,81.0564286 C153.280619,81.2250496 153.045842,81.3032985 152.7295,81.2911755 L147.92705,81.1038188 C147.61181,81.0905937 147.382544,80.9947112 147.240355,80.8139671 C147.098167,80.6343252 147.03093,80.4249266 147.04085,80.1868735 C147.05077,79.9477182 147.132336,79.7449322 147.288854,79.5752092 C147.444269,79.4065882 147.680148,79.3294414 147.995388,79.3404623 L152.798941,79.527819 C153.114181,79.539942 153.342344,79.6369266 153.485635,79.8165686 C153.627824,79.9973126 153.693958,80.2067112 153.68514,80.4447643 C153.67522,80.6839196 153.592552,80.8878077 153.437137,81.0564286 M154.496388,78.9933015 C154.317825,78.772882 154.089662,78.59324 153.814102,78.4543757 C153.537441,78.3166135 153.216689,78.2394666 152.850746,78.2251394 L148.046091,78.0377827 C147.663615,78.0223534 147.332943,78.0741519 147.055179,78.1909743 C146.777416,78.3077967 146.544843,78.4698051 146.357463,78.6758974 C146.162367,78.8731729 146.013565,79.0991029 145.908852,79.3558917 C145.805242,79.6104763 145.747925,79.8716735 145.738005,80.1350749 C145.728085,80.3995783 145.764459,80.6640818 145.847127,80.9263811 C145.930897,81.1897825 146.063165,81.432244 146.241728,81.6515614 C146.412575,81.8631642 146.63192,82.0383978 146.898662,82.1772621 C147.167608,82.3150243 147.491666,82.3921712 147.875244,82.4076005 L152.679899,82.5949572 C153.045842,82.6081823 153.372105,82.5563838 153.657584,82.4406635 C153.944166,82.322739 154.185556,82.1662411 154.37955,81.9689656 C154.566931,81.7639754 154.712426,81.5325349 154.817139,81.2757461 C154.920749,81.0200594 154.976963,80.7599643 154.987986,80.4954608 C154.997906,80.2320595 154.961532,79.9686581 154.878864,79.7041546 C154.793992,79.4418553 154.667234,79.2038022 154.496388,78.9933015" id="Fill-73" fill="#1D1D1B"></path>
                <path d="M150.41458,85.9178923 L150.501657,85.181691 L153.321181,85.5123203 L153.240718,86.1846 C153.190015,86.6331538 153.0346,86.9241076 152.779983,87.0574614 C152.642203,87.1191789 152.486787,87.1522418 152.310429,87.1566502 C152.134071,87.1621607 151.931259,87.1511397 151.703096,87.1246894 C151.473831,87.0971369 151.274326,87.0607677 151.103479,87.0155817 C150.933734,86.9692936 150.792648,86.9053719 150.682424,86.8238167 C150.573302,86.7345468 150.493941,86.6177244 150.445443,86.4755538 C150.398047,86.3322811 150.389229,86.1460265 150.41458,85.9178923 L150.41458,85.9178923 Z M145.497497,84.5953749 L149.358636,85.047235 L149.268253,85.8220098 L145.266027,86.5758447 L145.1051,87.9468544 L149.396112,87.0343174 C149.575777,87.4751565 149.841416,87.8002754 150.196337,88.0085718 C150.549053,88.2179704 150.991051,88.3535285 151.525636,88.416348 C153.294728,88.6235424 154.269106,87.96559 154.447669,86.4424908 L154.691263,84.359526 L145.650708,83.2993079 L145.497497,84.5953749 Z" id="Fill-75" fill="#1D1D1B"></path>
                <polygon id="Fill-77" fill="#1D1D1B" opacity="0.3" points="140.635415 93.5927912 153.045512 96.6709504 153.291311 95.6779603 140.882317 92.6009032"></polygon>
                <path d="M145.795762,103.637531 L146.019517,103.053419 L148.908482,104.161028 L148.66599,104.793632 C148.574504,105.032787 148.469792,105.201408 148.348545,105.301699 C148.228401,105.400888 148.088417,105.455993 147.928593,105.468116 C147.768768,105.480239 147.597921,105.455993 147.416052,105.395377 C147.234183,105.334762 147.042393,105.266432 146.843991,105.189285 C146.629054,105.10773 146.436163,105.027276 146.266418,104.946823 C146.094469,104.868574 145.9622,104.773794 145.867408,104.665788 C145.7649,104.552272 145.703174,104.41451 145.683334,104.252502 C145.663494,104.089391 145.70097,103.885503 145.795762,103.637531 L145.795762,103.637531 Z M141.554351,101.341861 L144.874292,102.613682 L144.635106,103.235265 C144.462055,103.688228 144.399227,104.083881 144.447725,104.422225 C144.496224,104.760569 144.62739,105.06585 144.842327,105.340272 C145.017582,105.571713 145.22811,105.760172 145.475011,105.904546 C145.72081,106.048921 146.034948,106.193296 146.416322,106.339875 C146.925556,106.536048 147.344407,106.650667 147.673976,106.685934 C148.003545,106.720099 148.318785,106.677117 148.620798,106.554784 C148.922811,106.433553 149.167508,106.262728 149.352684,106.042309 C149.53786,105.819685 149.693276,105.543058 149.821135,105.209123 L150.522159,103.382947 L142.0217,100.124043 L141.554351,101.341861 Z" id="Fill-79" fill="#1D1D1B"></path>
                <path d="M147.303734,108.306458 C147.103127,108.070609 146.837487,107.874436 146.505714,107.717938 L142.158488,105.666934 C141.812385,105.503824 141.488327,105.421151 141.186314,105.421151 C140.885403,105.420064 140.608741,105.478475 140.355226,105.594196 C140.098405,105.698895 139.872446,105.84878 139.676248,106.043851 C139.480049,106.238923 139.326838,106.456036 139.213308,106.695191 C139.10088,106.934347 139.031439,107.191135 139.006087,107.465558 C138.978531,107.741082 139.006087,108.014402 139.084346,108.287723 C139.158196,108.550022 139.291567,108.79579 139.483356,109.02723 C139.676248,109.259773 139.945194,109.458151 140.293501,109.621261 L142.882658,110.843487 L143.881285,108.72746 L142.840773,108.237026 L142.398775,109.172707 L140.850131,108.442016 C140.564652,108.30756 140.3916,108.129021 140.330977,107.908601 C140.270354,107.685977 140.291297,107.46666 140.392702,107.251751 C140.494108,107.03574 140.650626,106.880344 140.860051,106.785563 C141.069477,106.691885 141.316378,106.711723 141.601857,106.846179 L145.949084,108.897183 C146.234563,109.031639 146.408717,109.210178 146.468238,109.4317 C146.528861,109.653222 146.507918,109.872539 146.406512,110.087448 C146.305107,110.30346 146.148589,110.458855 145.939164,110.553636 C145.729738,110.647314 145.482837,110.627476 145.197357,110.49302 L144.780712,110.296847 L144.224081,111.476092 L144.640727,111.672265 C144.972501,111.828763 145.29215,111.909216 145.600777,111.912522 C145.909403,111.918033 146.192678,111.867336 146.450602,111.762637 C146.703014,111.645815 146.926769,111.490419 147.122967,111.295348 C147.319165,111.100276 147.472376,110.883163 147.585907,110.644008 C147.698335,110.404853 147.767776,110.148064 147.793128,109.873641 C147.820684,109.598117 147.795332,109.330307 147.721482,109.068008 C147.643223,108.79579 147.503239,108.542307 147.303734,108.306458" id="Fill-81" fill="#1D1D1B"></path>
                <polygon id="Fill-83" fill="#1D1D1B" points="136.119877 112.694351 140.798877 115.653483 140.783446 115.674423 136.794447 114.663799 136.44614 115.214848 139.063955 118.397707 139.049626 118.418647 134.370626 115.460616 133.672909 116.562714 141.367632 121.427374 142.043304 120.357237 138.857836 116.377561 138.872165 116.355519 143.841054 117.514926 144.510112 116.456912 136.816492 111.592253"></polygon>
                <path d="M134.770077,120.382144 L137.004313,122.890519 L136.988882,122.910356 L133.97867,121.418116 L134.770077,120.382144 Z M132.610793,117.963039 L133.933478,119.454178 L132.85549,120.867067 L131.06766,119.985389 L130.276253,121.022463 L138.746951,124.927195 L139.406089,124.063151 L133.402199,116.925965 L132.610793,117.963039 Z" id="Fill-85" fill="#1D1D1B"></path>
                <polygon id="Fill-87" fill="#1D1D1B" points="135.787332 126.639525 129.809896 121.511464 128.961173 122.500045 134.937507 127.628107 133.955413 128.774288 134.886804 129.573309 137.700817 126.294568 136.770528 125.494445"></polygon>
                <polygon id="Fill-89" fill="#1D1D1B" points="126.779954 124.877711 129.666715 127.722226 128.535819 128.869509 125.649058 126.024995 124.734201 126.954063 131.216462 133.344027 132.131319 132.414958 129.354782 129.677347 130.485678 128.530063 133.263318 131.267674 134.179277 130.338606 127.694812 123.948643"></polygon>
                <path d="M126.782159,134.647037 L123.617634,130.76104 C123.354199,130.437023 123.086355,130.213297 122.814102,130.087658 C122.541849,129.963121 122.272903,129.899199 122.007264,129.895826 C121.740523,129.893689 121.487008,129.945488 121.245618,130.054595 C121.004228,130.163703 120.788189,130.295955 120.5964,130.45135 C120.371543,130.634299 120.197389,130.85031 120.075041,131.09718 C119.953795,131.346254 119.881047,131.604145 119.860105,131.875261 C119.83806,132.145275 119.865616,132.411982 119.940568,132.674282 C120.016622,132.936581 120.144482,133.176838 120.321942,133.395054 L120.676863,133.831484 L121.688717,133.008217 L121.405442,132.659954 C121.293014,132.522192 121.218062,132.389941 121.18279,132.265403 C121.147519,132.140866 121.137598,132.02735 121.154132,131.925957 C121.176177,131.820156 121.21696,131.724273 121.274276,131.639412 C121.331592,131.553448 121.392215,131.484016 121.459452,131.430013 C121.690922,131.241555 121.90696,131.179837 122.109772,131.247065 C122.311482,131.313191 122.495555,131.448749 122.663096,131.653739 L125.601662,135.26311 C125.794554,135.500061 125.914697,135.730399 125.957685,135.953023 C126.001774,136.175647 125.898164,136.389453 125.646854,136.594444 C125.455064,136.749839 125.243435,136.800536 125.014169,136.746533 C124.782699,136.69253 124.586501,136.566891 124.424472,136.368514 L124.150015,136.031272 L123.139262,136.854539 L123.462218,137.251294 C123.660621,137.49596 123.88658,137.688827 124.138992,137.829895 C124.391405,137.970964 124.651533,138.05803 124.921581,138.091093 C125.471598,138.160525 125.984138,138.00072 126.460305,137.612782 C126.705002,137.414404 126.894587,137.191781 127.02906,136.943809 C127.163533,136.696939 127.243996,136.442354 127.27045,136.178953 C127.298006,135.914449 127.27045,135.651048 127.187782,135.388749 C127.106217,135.126449 126.970641,134.878477 126.782159,134.647037" id="Fill-91" fill="#1D1D1B"></path>
                <path d="M121.074991,140.03376 C120.878793,140.169318 120.667163,140.226627 120.439,140.203483 C120.209735,140.181441 120.004718,140.040373 119.825054,139.78138 L117.080481,135.834768 C116.900816,135.575775 116.839091,135.335517 116.89751,135.112894 C116.955928,134.891372 117.082686,134.71173 117.278884,134.576172 C117.47398,134.439512 117.687814,134.382203 117.915977,134.406449 C118.144141,134.427389 118.348055,134.568457 118.528822,134.82745 L121.274496,138.77296 C121.454161,139.033056 121.514784,139.273313 121.457468,139.495937 C121.399049,139.717458 121.27119,139.8971 121.074991,140.03376 M122.344769,138.030146 L119.599095,134.083534 C119.380852,133.768334 119.140564,133.535792 118.880436,133.384804 C118.618103,133.233817 118.350259,133.145649 118.072495,133.120301 C117.798038,133.082829 117.526887,133.100463 117.260146,133.170997 C116.993404,133.243736 116.750912,133.353945 116.534873,133.504933 C116.317733,133.65592 116.12925,133.844379 115.968323,134.070309 C115.809601,134.295137 115.694968,134.546415 115.627732,134.82194 C115.561597,135.085341 115.553882,135.365274 115.604585,135.661738 C115.655288,135.959305 115.790863,136.264586 116.009106,136.579786 L118.755883,140.525296 C118.964206,140.827271 119.202289,141.056507 119.466826,141.214107 C119.732466,141.371707 120.002514,141.469794 120.278073,141.507265 C120.554735,141.531511 120.826988,141.508367 121.094832,141.436731 C121.361573,141.366197 121.602963,141.253783 121.820104,141.103897 C122.037245,140.95291 122.225728,140.764451 122.38445,140.539623 C122.545377,140.313693 122.658907,140.069027 122.723939,139.805626 C122.792278,139.530102 122.796687,139.24025 122.742677,138.936071 C122.686463,138.632994 122.554195,138.329917 122.344769,138.030146" id="Fill-93" fill="#1D1D1B"></path>
                <polygon id="Fill-95" fill="#1D1D1B" points="110.599433 137.324804 111.265184 138.446739 113.486194 137.127528 117.468579 143.831589 118.589555 143.167024 113.941418 135.339926"></polygon>
                <polygon id="Fill-97" fill="#1D1D1B" points="106.51024 139.410524 107.099937 140.573237 109.403615 139.405014 112.929674 146.361455 114.093637 145.77073 109.977881 137.652678"></polygon>
                <path d="M106.558628,146.444994 L104.687028,143.654482 L105.88957,143.147517 L106.581775,146.433973 L106.558628,146.444994 Z M105.217205,139.97568 L105.623931,141.926393 L103.986005,142.617408 L102.872745,140.964262 L101.670203,141.471226 L107.082191,149.067987 L108.084126,148.645883 L106.418644,139.468715 L105.217205,139.97568 Z" id="Fill-99" fill="#1D1D1B"></path>
                <path d="M100.788082,146.21686 C100.562124,146.292904 100.371436,146.328172 100.216021,146.322661 C100.061708,146.316048 99.92503,146.26976 99.8048861,146.183797 C99.6946623,146.094527 99.5998699,145.973296 99.5227132,145.820104 C99.4433521,145.666913 99.3672977,145.480658 99.29455,145.263545 C99.2229045,145.051942 99.1655881,144.856871 99.1226009,144.673923 C99.0785113,144.489872 99.0718979,144.321251 99.1016583,144.16806 C99.1303165,144.013766 99.2041665,143.877106 99.3210037,143.756977 C99.4367387,143.636849 99.6208124,143.534354 99.8721226,143.449492 L100.404504,143.270952 L101.33369,146.033911 L100.788082,146.21686 Z M102.498756,149.500009 L101.989522,149.670834 C101.577285,149.809699 101.25984,149.808596 101.037188,149.667528 C100.813434,149.526459 100.637076,149.261956 100.507012,148.874018 C100.374743,148.478364 100.344983,148.153246 100.416628,147.899763 C100.489376,147.646281 100.730766,147.450107 101.141901,147.312345 L101.699633,147.124988 L102.498756,149.500009 Z M99.5414513,142.186488 C98.7335109,142.457604 98.2132546,142.856563 97.9817846,143.384468 C97.7492124,143.911271 97.7613371,144.554896 98.015954,145.315344 L98.1790852,145.799165 C98.3333985,146.259841 98.5251879,146.60039 98.7511467,146.820809 C98.9782077,147.041229 99.2603806,147.171276 99.5976654,147.20985 C99.3695021,147.467741 99.2240067,147.731142 99.1622814,148.004462 C99.1314188,148.149939 99.1237031,148.308641 99.1424411,148.483875 C99.1589747,148.656904 99.2074732,148.860792 99.2868343,149.095539 L99.3926491,149.409637 C99.4874416,149.692876 99.6175057,149.952971 99.7828414,150.18882 C99.948177,150.425771 100.153193,150.615332 100.39789,150.758605 C100.644791,150.900775 100.926964,150.985637 101.246613,151.013189 C101.566262,151.040742 101.923387,150.987841 102.320193,150.854487 L104.125659,150.248333 L101.225671,141.62001 L99.5414513,142.186488 Z" id="Fill-101" fill="#1D1D1B"></path>
                <path d="M96.6513835,151.041734 C96.5180127,151.22909 96.3361434,151.352525 96.1046735,151.410936 C95.8732035,151.469348 95.6549604,151.447306 95.4488419,151.344811 C95.2427235,151.24452 95.101637,151.039529 95.0233781,150.734248 L93.846188,146.073477 C93.7690314,145.768196 93.7965873,145.521326 93.9299581,145.333969 C94.0622267,145.146612 94.2451982,145.023178 94.4755659,144.964766 C94.7070358,144.907457 94.9274834,144.928397 95.1324997,145.030892 C95.3386181,145.132285 95.4808068,145.336173 95.5579635,145.642557 L96.7340513,150.302226 C96.8123102,150.607507 96.783652,150.854377 96.6513835,151.041734 L96.6513835,151.041734 Z M96.8211281,145.322948 C96.7274379,144.950439 96.5852492,144.647362 96.3956643,144.41482 C96.2038749,144.181175 95.9834273,144.004839 95.7332193,143.883608 C95.4885225,143.751357 95.2294966,143.672006 94.9539371,143.644453 C94.6794799,143.618003 94.4138406,143.635636 94.1570191,143.70066 C93.9012999,143.765684 93.6577054,143.875894 93.4284399,144.030187 C93.2002766,144.184481 93.0051805,144.37845 92.8442538,144.613197 C92.6899405,144.835821 92.5841256,145.095916 92.5268093,145.391278 C92.4694929,145.687743 92.4882309,146.020576 92.5830234,146.393085 L93.7591112,151.053857 C93.8494947,151.408732 93.9905812,151.707401 94.1834728,151.94876 C94.3763645,152.19012 94.5946076,152.376374 94.8382021,152.508626 C95.0895124,152.628755 95.351845,152.703697 95.6274045,152.73125 C95.9018617,152.758802 96.1686033,152.740066 96.4243225,152.675043 C96.6800417,152.610019 96.922534,152.500911 97.1517995,152.346617 C97.381065,152.191222 97.5728544,152.002763 97.7282699,151.779037 C97.8880944,151.54429 97.9961137,151.276481 98.0512256,150.972302 C98.1052353,150.668123 98.0887017,150.337493 97.9994204,149.982618 L96.8211281,145.322948 Z" id="Fill-103" fill="#1D1D1B"></path>
                <path d="M90.4438001,152.615309 C89.998496,152.691354 89.6755403,152.62633 89.474933,152.418033 C89.377936,152.305619 89.3029839,152.164551 89.247872,151.997032 C89.1927601,151.828411 89.1453638,151.631136 89.1067855,151.404103 C89.0682072,151.178173 89.0461624,150.976489 89.0428557,150.800154 C89.0384468,150.622716 89.0593893,150.470627 89.1067855,150.341681 C89.1618974,150.210532 89.2511787,150.102526 89.3746293,150.016562 C89.4991822,149.929497 89.674438,149.867779 89.9003968,149.829206 L90.6311805,149.703567 L91.110654,152.500691 L90.4438001,152.615309 Z M89.7802529,144.739718 L90.4371867,148.569508 L89.6689268,148.70176 L87.8138605,145.075858 L86.4536989,145.309503 L88.5413375,149.166845 C88.1698833,149.464411 87.9329022,149.811572 87.8325985,150.209429 C87.7311926,150.607287 87.7267837,151.07127 87.8171672,151.600277 C88.1191804,153.355919 89.0252199,154.104243 90.5374903,153.844148 L92.6041864,153.490375 L91.0654623,144.518196 L89.7802529,144.739718 Z" id="Fill-105" fill="#1D1D1B"></path>
                <path d="M84.5138704,152.003975 L84.4896212,152.007282 L83.5416966,148.783645 L84.8401328,148.661313 L84.5138704,152.003975 Z M84.9536633,147.417044 L83.1845715,147.584563 L82.6180212,145.673525 L81.3206872,145.795858 L84.2008349,154.666644 L85.2821302,154.564149 L86.4505024,145.310935 L85.1509639,145.433268 L84.9536633,147.417044 Z" id="Fill-107" fill="#1D1D1B"></path>
                <polygon id="Fill-109" fill="#1D1D1B" points="80.9390925 153.652824 80.6481017 145.781641 79.3452565 145.830134 79.6362473 153.700214 78.1283858 153.756421 78.1735776 154.983056 82.4921457 154.823252 82.4469539 153.596617"></polygon>
                <path d="M76.1524039,152.801453 C76.143586,153.116653 76.0487936,153.34589 75.870231,153.490264 C75.6905663,153.634639 75.4822433,153.701867 75.2441599,153.696357 C75.0049743,153.688642 74.799958,153.607087 74.6302134,153.453895 C74.4604688,153.299601 74.3800054,153.063753 74.3888233,152.749655 L74.531012,147.944508 C74.5409321,147.629308 74.6357246,147.400072 74.8142871,147.255697 C74.9928497,147.112424 75.2022749,147.042992 75.4403583,147.050707 C75.6795439,147.057319 75.8845601,147.137773 76.0543048,147.293168 C76.2240494,147.447462 76.3045128,147.681107 76.2956949,147.997409 L76.1524039,152.801453 Z M76.9460152,146.353079 C76.7465102,146.160212 76.5183469,146.012531 76.2615255,145.911138 C76.0036018,145.809745 75.7434737,145.75464 75.4800388,145.748027 C75.2155017,145.73921 74.9520669,145.778886 74.6897343,145.86485 C74.4274016,145.949711 74.1860115,146.084167 73.9677684,146.264911 C73.757241,146.43794 73.5852919,146.65836 73.4486144,146.927272 C73.3130391,147.196184 73.2391892,147.522405 73.2281668,147.905935 L73.0859781,152.711081 C73.0749557,153.076978 73.1289654,153.403199 73.2480071,153.68754 C73.368151,153.971881 73.5268733,154.211036 73.7263783,154.405006 C73.9335991,154.590158 74.1661713,154.733431 74.4229927,154.835926 C74.6798141,154.936217 74.9399423,154.991322 75.2055816,154.999036 C75.4690164,155.006751 75.7324513,154.968178 75.9947839,154.882214 C76.2582188,154.79625 76.4940977,154.666203 76.7035229,154.493173 C76.921766,154.312429 77.0992263,154.083193 77.2348016,153.805464 C77.3714791,153.528838 77.445329,153.205923 77.4563514,152.840027 L77.5985401,148.035982 C77.6095624,147.652452 77.5555528,147.321823 77.4365111,147.045196 C77.3174694,146.76857 77.153236,146.538231 76.9460152,146.353079 L76.9460152,146.353079 Z" id="Fill-111" fill="#1D1D1B"></path>
                <path d="M70.1513799,153.377299 L69.4779126,153.304561 C69.0270973,153.256069 68.7361065,153.103979 68.6005312,152.849395 C68.5377036,152.713836 68.5035343,152.558441 68.4969208,152.382105 C68.4903074,152.205769 68.4991253,152.002983 68.5233746,151.773747 C68.548726,151.545613 68.5828954,151.345031 68.6269849,151.174206 C68.6710744,151.003381 68.733902,150.862312 68.8143654,150.751 C68.9036466,150.640791 69.0204838,150.560337 69.1626725,150.511845 C69.303759,150.463353 69.4900372,150.45123 69.7182004,150.475476 L70.4555976,150.554827 L70.1513799,153.377299 Z M70.5801505,149.411951 L69.8052772,149.328192 L69.0149727,145.333087 L67.6426865,145.184304 L68.5939178,149.467056 C68.1541249,149.651107 67.8311692,149.920019 67.6250507,150.275996 C67.4189322,150.630872 67.2877659,151.075017 67.2304495,151.609534 C67.0386601,153.379504 67.705514,154.347145 69.2310113,154.51246 L71.3164454,154.737288 L72.2941304,145.687963 L70.9978986,145.547997 L70.5801505,149.411951 Z" id="Fill-113" fill="#1D1D1B"></path>
                <polygon id="Fill-115" fill="#1D1D1B" opacity="0.3" points="58.971932 153.199641 59.9661506 153.437694 62.937784 141.003827 61.9424632 140.765774"></polygon>
                <path d="M49.0829843,148.223008 L48.4569132,147.96622 C48.219932,147.868133 48.0523919,147.757923 47.9564972,147.63559 C47.8595002,147.512155 47.807695,147.372189 47.7988771,147.211283 C47.7911615,147.051478 47.8198197,146.880653 47.8848517,146.699909 C47.9498837,146.520267 48.0226314,146.330706 48.1030948,146.133431 C48.1912738,145.920726 48.2772484,145.730063 48.3599162,145.562544 C48.4425841,145.393923 48.5406832,145.262774 48.6520093,145.170197 C48.7677443,145.071009 48.9066262,145.012597 49.0686552,144.996066 C49.2328886,144.981739 49.4357004,145.023618 49.6803972,145.122807 L50.2601744,145.361962 L49.0829843,148.223008 Z M50.726421,144.226802 L50.1124745,143.974421 C49.6627614,143.790371 49.2681603,143.71653 48.928671,143.757308 C48.590284,143.796984 48.2805551,143.921521 48.0027912,144.128715 C47.7669122,144.29954 47.5729184,144.505632 47.423014,144.748094 C47.2720074,144.990555 47.1198986,145.301347 46.9633808,145.678264 C46.7561601,146.183025 46.630505,146.599618 46.5875177,146.928043 C46.5456326,147.255366 46.5809043,147.571669 46.695537,147.878052 C46.8090675,148.182231 46.9755054,148.429101 47.1915441,148.619764 C47.4075827,148.810426 47.6820399,148.974639 48.0127113,149.110197 L49.8225859,149.854113 L53.2858174,141.43629 L52.0788669,140.940346 L50.726421,144.226802 Z" id="Fill-117" fill="#1D1D1B"></path>
                <path d="M48.0097352,140.472836 C48.0174509,140.171963 47.966748,139.894235 47.8565242,139.637446 C47.7573228,139.378453 47.6140318,139.149217 47.4233447,138.948635 C47.2326575,138.749155 47.0199256,138.588249 46.7840467,138.470324 C46.5470656,138.351298 46.2913464,138.276355 46.0168891,138.243292 C45.7424319,138.210229 45.4679747,138.230067 45.1935174,138.301703 C44.9311848,138.370033 44.6798746,138.496775 44.4450979,138.684131 C44.2081167,138.870386 44.0031005,139.134889 43.8311514,139.477642 L42.545942,142.036713 L44.6368873,143.08591 L45.1538369,142.057653 L44.227957,141.59367 L44.9973191,140.062856 C45.1384055,139.780719 45.321377,139.612098 45.5440291,139.556993 C45.7666811,139.501888 45.9849242,139.52944 46.1976561,139.635242 C46.4114903,139.743247 46.5635991,139.901949 46.6528804,140.113552 C46.7421617,140.325155 46.7146057,140.572025 46.5735193,140.854162 L44.4164397,145.150139 C44.2753532,145.431174 44.0923818,145.599795 43.8697297,145.6549 C43.6470776,145.710005 43.4288345,145.684657 43.2150004,145.576651 C43.0022685,145.469748 42.8501596,145.311045 42.7608784,145.098341 C42.6715971,144.886738 42.6991531,144.639868 42.8402395,144.357731 L43.046358,143.946648 L41.8801903,143.361434 L41.6740718,143.773619 C41.5109406,144.100942 41.4216593,144.419448 41.4095347,144.726934 C41.3974101,145.036623 41.4414996,145.319862 41.5395988,145.579957 C41.6498226,145.835644 41.7997269,146.062676 41.9904141,146.26436 C42.1811012,146.464942 42.3938332,146.623644 42.6297121,146.741568 C42.8666932,146.860595 43.1213102,146.93664 43.3957674,146.969703 C43.6702246,147.002766 43.9391707,146.98403 44.2026055,146.916802 C44.4770628,146.844064 44.7338842,146.71071 44.9752743,146.51674 C45.2155622,146.323873 45.4172717,146.061574 45.5826074,145.734251 L47.739687,141.439376 C47.9105338,141.095521 48.0009173,140.773709 48.0097352,140.472836" id="Fill-119" fill="#1D1D1B"></path>
                <polygon id="Fill-121" fill="#1D1D1B" points="40.8656905 135.233573 37.7926513 139.838138 37.7706065 139.823811 38.8783556 135.859565 38.3371568 135.498077 35.0910662 138.036208 35.0690214 138.021881 38.1420607 133.417316 37.0574586 132.693238 32.0048001 140.26465 33.0574373 140.967788 37.1158772 137.880812 37.1368197 137.89514 35.854917 142.83364 36.8965319 143.529064 41.9491904 135.957652"></polygon>
                <path d="M30.6430954,135.8621 L30.6221528,135.845568 L32.1895351,132.874313 L33.2069007,133.689865 L30.6430954,135.8621 Z M35.6781181,131.592573 L34.1548253,132.877619 L32.7693123,131.7645 L33.6951921,130.000041 L32.6778265,129.182285 L28.5631725,137.55382 L29.4107934,138.233814 L36.6954837,132.408125 L35.6781181,131.592573 Z" id="Fill-123" fill="#1D1D1B"></path>
                <polygon id="Fill-125" fill="#1D1D1B" points="32.208163 128.710256 31.2392958 127.837395 25.9650875 133.686228 24.8441116 132.675604 24.0218421 133.587039 27.2315588 136.481148 28.0527261 135.569713 26.9328524 134.559089"></polygon>
                <polygon id="Fill-127" fill="#1D1D1B" points="28.9036537 125.588013 25.9871323 128.402771 24.8683608 127.244466 27.78378 124.428606 26.8788427 123.491823 20.3293451 129.813456 21.2342824 130.752444 24.0405801 128.043487 25.1604538 129.201792 22.3541561 131.909646 23.2601957 132.848634 29.8085911 126.527001"></polygon>
                <path d="M23.7841996,121.48314 C23.9153659,121.21533 23.9859091,120.94752 23.994727,120.680813 C24.0046472,120.414105 23.9583532,120.160622 23.8558451,119.915957 C23.7544392,119.671291 23.6265796,119.451973 23.475573,119.2558 C23.2992149,119.027666 23.086483,118.848024 22.8428884,118.720181 C22.5970894,118.592337 22.3391657,118.514088 22.0702197,118.484332 C21.8001714,118.456779 21.5334298,118.476617 21.2688927,118.547151 C21.0054579,118.616583 20.7618633,118.737814 20.5392112,118.909741 L20.0939071,119.254698 L20.8919274,120.285159 L21.2457457,120.010737 C21.3879344,119.901629 21.5213052,119.831095 21.6469603,119.798032 C21.7726154,119.764969 21.8861459,119.759459 21.9875518,119.777092 C22.0933667,119.803543 22.1881591,119.846524 22.270827,119.904936 C22.3556993,119.964449 22.4229358,120.028371 22.4758432,120.094496 C22.6577125,120.331448 22.7128244,120.548561 22.6422811,120.750245 C22.5706357,120.950826 22.4306515,121.131571 22.2223285,121.293579 L18.5408539,124.140298 C18.2983616,124.328756 18.0657894,124.442272 17.8409328,124.479744 C17.6182808,124.518317 17.4066511,124.409209 17.2082483,124.153523 C17.0572417,123.957349 17.0109477,123.745747 17.0715708,123.51651 C17.1310916,123.287274 17.262258,123.093305 17.4639675,122.936807 L17.8078657,122.671201 L17.0098455,121.64074 L16.6053242,121.952633 C16.3562184,122.145501 16.1578156,122.367022 16.0101157,122.614994 C15.8635181,122.864068 15.7698278,123.121959 15.729045,123.389769 C15.6474794,123.938614 15.7929748,124.455498 16.168838,124.941523 C16.3628318,125.189495 16.5799727,125.385668 16.8235673,125.525635 C17.0671618,125.665601 17.3206766,125.752667 17.5841114,125.78573 C17.846444,125.820997 18.1109811,125.798955 18.3755182,125.724012 C18.6400553,125.647967 18.8913656,125.519022 19.1261422,125.336074 L23.090892,122.270038 C23.4215633,122.013249 23.6530333,121.752052 23.7841996,121.48314" id="Fill-129" fill="#1D1D1B"></path>
                <path d="M14.429727,119.922569 C14.2092794,119.858648 14.0329214,119.726396 13.901755,119.528018 C13.7694865,119.328539 13.7176813,119.115834 13.7463395,118.887699 C13.7749977,118.659565 13.9204931,118.458983 14.1839279,118.284852 L18.1960739,115.636511 C18.4595088,115.462379 18.7008989,115.407274 18.9213464,115.471196 C19.1428963,115.535118 19.3192543,115.66737 19.4504206,115.865747 C19.5815869,116.065227 19.6333921,116.277932 19.6047339,116.506066 C19.577178,116.7342 19.4316826,116.934782 19.1671455,117.108914 L15.1561018,119.757255 C14.8926669,119.931386 14.6501746,119.986491 14.429727,119.922569 L14.429727,119.922569 Z M19.8858046,118.197786 C20.2065558,117.986183 20.4457415,117.751437 20.6022592,117.494648 C20.7598793,117.237859 20.8546717,116.971151 20.8855344,116.694525 C20.9296239,116.420102 20.9197037,116.148986 20.8546717,115.881177 C20.7896397,115.612265 20.6838248,115.367599 20.5383294,115.147179 C20.392834,114.92676 20.2098625,114.733893 19.9872105,114.568578 C19.7667629,114.403263 19.5187594,114.283135 19.2454044,114.208192 C18.9830718,114.136556 18.7031033,114.122228 18.4043969,114.16521 C18.1067926,114.209294 17.7970638,114.337138 17.4774148,114.54874 L13.4652688,117.195979 C13.1588467,117.398765 12.92407,117.630206 12.7598366,117.891403 C12.5956031,118.153702 12.4919928,118.421512 12.4479033,118.695934 C12.4159384,118.971459 12.4324719,119.244779 12.497504,119.512589 C12.562536,119.781501 12.6672486,120.026166 12.812744,120.246586 C12.9582394,120.467006 13.1423131,120.659873 13.363863,120.824085 C13.5843105,120.990502 13.8268029,121.108426 14.0880333,121.181165 C14.3624905,121.256108 14.6523791,121.269333 14.957699,121.22084 C15.2619166,121.172348 15.5683387,121.047811 15.8736586,120.845025 L19.8858046,118.197786 Z" id="Fill-131" fill="#1D1D1B"></path>
                <polygon id="Fill-133" fill="#1D1D1B" points="16.8656728 109.123333 15.7281632 109.76255 16.9935324 112.014136 10.1927245 115.832905 10.8309203 116.969168 18.7692376 112.512284"></polygon>
                <polygon id="Fill-135" fill="#1D1D1B" points="14.8699608 104.962473 13.6927707 105.523441 14.8038265 107.85548 7.76273085 111.209164 8.32376994 112.386204 16.5420557 108.471553"></polygon>
                <path d="M7.85509838,104.88709 L7.84517824,104.863946 L10.6812364,103.060914 L11.1585054,104.273221 L7.85509838,104.88709 Z M14.3461774,103.678088 L12.3852961,104.037372 L11.7349758,102.384225 L13.4136841,101.311884 L12.9364151,100.097373 L5.20972743,105.32352 L5.60763531,106.334144 L14.8234464,104.8926 L14.3461774,103.678088 Z" id="Fill-137" fill="#1D1D1B"></path>
                <path d="M8.38086586,99.6489289 L8.21112122,99.0989821 C8.140578,98.8708479 8.11081758,98.6790829 8.12073772,98.5247892 C8.13065786,98.3704955 8.18025856,98.2349374 8.2684376,98.117013 C8.35992334,98.0090074 8.48337399,97.9175333 8.63878953,97.8425906 C8.79420507,97.767648 8.98158552,97.6971137 9.2020331,97.6287836 C9.41366277,97.5626578 9.61206559,97.5108592 9.79613932,97.4711837 C9.98021305,97.4326102 10.1488555,97.4293039 10.3009643,97.463469 C10.4541753,97.4954298 10.5897506,97.5714746 10.7065878,97.6927053 C10.8245273,97.8117319 10.9226265,97.9979864 10.9997831,98.2492647 L11.166221,98.7881905 L8.38086586,99.6489289 Z M4.88787396,100.727883 L4.7291517,100.216509 C4.60018987,99.8010184 4.61011001,99.4836143 4.75560541,99.2631947 C4.90220305,99.0449793 5.17004686,98.8752563 5.56134132,98.7540255 C5.96035144,98.6305906 6.28661385,98.6085486 6.53792409,98.6867975 C6.78923434,98.7639444 6.97992149,99.0119164 7.10778109,99.4274073 L7.28193468,99.9894772 L4.88787396,100.727883 Z M12.2728679,97.9505962 C12.0204554,97.1361459 11.6335699,96.6060369 11.1122114,96.3624733 C10.5897506,96.1178075 9.94714591,96.1133991 9.18109058,96.3503502 L8.69279919,96.5013376 C8.22875703,96.6446103 7.88375657,96.8264564 7.6577978,97.0490802 C7.43183903,97.2706019 7.29516153,97.5494326 7.24666306,97.8844703 C6.99645506,97.6508256 6.73522468,97.4998382 6.46407416,97.430406 C6.31968099,97.3951389 6.1598565,97.3841179 5.98570291,97.3984452 C5.81154932,97.4127725 5.60653307,97.4557543 5.37065416,97.5284927 L5.05210741,97.6265794 C4.76773003,97.7147473 4.50429517,97.8381822 4.26400731,97.9979864 C4.02261721,98.1566885 3.82862334,98.3572703 3.67982122,98.5997318 C3.53212135,98.8421933 3.4406356,99.1210241 3.40536399,99.4417345 C3.37009237,99.7602408 3.41418189,100.118423 3.53763254,100.517382 L4.09977386,102.336945 L12.7975331,99.6478268 L12.2728679,97.9505962 Z" id="Fill-139" fill="#1D1D1B"></path>
                <path d="M3.12484444,94.2590094 C3.07193702,94.0264667 3.09949297,93.8082514 3.20641005,93.6043633 C3.31332712,93.4015773 3.52054785,93.2649171 3.82807222,93.195485 L8.51699224,92.1330627 C8.82451662,92.0647326 9.07031567,92.0977956 9.2543894,92.2355578 C9.43846312,92.37332 9.55640258,92.5584724 9.60931,92.7910151 C9.66221742,93.0235577 9.63466147,93.2417731 9.52774439,93.4456612 C9.42082732,93.6484472 9.21360659,93.7851073 8.90608222,93.8545395 L4.2171622,94.9158597 C3.90963783,94.9852918 3.66383877,94.9511268 3.47976505,94.8144667 C3.29569132,94.6767044 3.17775186,94.491552 3.12484444,94.2590094 M4.50484629,96.1876805 L9.19376631,95.1263603 C9.5685272,95.0414988 9.87494933,94.9070429 10.1119305,94.7218905 C10.3500139,94.536738 10.5329854,94.3218289 10.6597427,94.0738569 C10.7975225,93.8324975 10.883497,93.5757087 10.9176664,93.3012864 C10.9518358,93.026864 10.9397111,92.7612584 10.8812925,92.5033676 C10.8228739,92.2454767 10.7192636,91.9997089 10.5704614,91.7671662 C10.4216593,91.5346236 10.2320744,91.3351439 10.0028089,91.167625 C9.78236135,91.0089229 9.52553992,90.8965089 9.2312424,90.8325873 C8.93694488,90.7675635 8.6029668,90.7774824 8.22820591,90.8623439 L3.53928589,91.9236641 C3.18216081,92.0041172 2.88014763,92.1374711 2.63434858,92.3248277 C2.38854953,92.5110822 2.19676013,92.7248892 2.05898039,92.9662486 C1.9311208,93.2142206 1.85065743,93.4743157 1.81648806,93.7487381 C1.78231868,94.0231604 1.7944433,94.288766 1.85286191,94.5466569 C1.91128052,94.8045478 2.01489088,95.0503156 2.16369299,95.2828582 C2.31249511,95.5154009 2.49656884,95.7115743 2.71591418,95.8713785 C2.9462819,96.0377952 3.21302347,96.1524134 3.51503666,96.2141309 C3.81704984,96.2780526 4.14772121,96.2681337 4.50484629,96.1876805" id="Fill-141" fill="#1D1D1B"></path>
                <path d="M2.1678815,89.2898708 L2.06978233,88.6197953 C2.00364805,88.1723436 2.07749799,87.850531 2.29022991,87.6565618 C2.40486265,87.5628835 2.54815357,87.4890429 2.71679597,87.4383464 C2.88654061,87.3876499 3.08494343,87.3457702 3.31200444,87.3127073 C3.54016768,87.2796443 3.74187722,87.2620108 3.91823528,87.2620108 C4.09569558,87.2620108 4.24780441,87.2884611 4.37566401,87.3380555 C4.50462584,87.3964667 4.61044068,87.4879408 4.69421076,87.61358 C4.7768786,87.7403212 4.83529721,87.9166569 4.86836435,88.143689 L4.97638366,88.8776862 L2.1678815,89.2898708 Z M9.96070344,88.1469953 L6.11499541,88.7112694 L6.00146491,87.9386988 L9.67081487,86.1742402 L9.47020758,84.807639 L5.56387646,86.8013339 C5.27509013,86.4211101 4.93339639,86.1775465 4.53769298,86.0673368 C4.14309181,85.957127 3.6801519,85.9405955 3.14887323,86.0188444 C1.38639483,86.2778374 0.615930538,87.1650262 0.837480355,88.6826149 L1.14280025,90.757865 L10.1502884,89.4375519 L9.96070344,88.1469953 Z" id="Fill-143" fill="#1D1D1B"></path>
                <path d="M2.82228014,82.6697896 L2.8211779,82.6455435 L6.06726851,81.7781925 L6.15765202,83.0786679 L2.82228014,82.6697896 Z M9.37618668,83.4710147 L7.39766966,83.2230427 L7.27532125,81.4508694 L9.19982862,80.9328835 L9.10944511,79.6313059 L0.16809128,82.290668 L0.244145695,83.3751322 L9.46657019,84.770388 L9.37618668,83.4710147 Z" id="Fill-145" fill="#1D1D1B"></path>
                <polygon id="Fill-147" fill="#1D1D1B" points="1.26206239 79.0739751 9.13755218 78.9769905 9.12101861 77.6732088 1.24552883 77.7701934 1.22789302 76.2614215 0 76.2768508 0.0529074191 80.5981764 1.28080044 80.582747"></polygon>
                <path d="M1.61786479,72.7604976 C1.77658704,72.5951829 2.01246596,72.5191381 2.32770599,72.5367717 L7.12905428,72.799071 C7.44319208,72.8167045 7.67025309,72.9158933 7.8102373,73.0988416 C7.94911928,73.2817898 8.01194684,73.4911884 7.99982222,73.7303436 C7.98659536,73.9683968 7.90062081,74.1700807 7.74189855,74.3364974 C7.58427853,74.5029142 7.34729738,74.5767548 7.03205734,74.5602233 L2.2318113,74.2990261 C1.91657126,74.2813925 1.68951025,74.1811016 1.54952604,73.9992555 C1.4117463,73.8163073 1.3478165,73.6069087 1.36104336,73.3677535 C1.37316797,73.1297003 1.45914253,72.9269143 1.61786479,72.7604976 M0.526649268,74.8070932 C0.701905094,75.0308191 0.926761625,75.2137673 1.20121886,75.3559379 C1.47457386,75.4992106 1.79532509,75.5807659 2.16126807,75.6006036 L6.96151412,75.8618008 C7.34399067,75.8838428 7.67576428,75.8375546 7.95463047,75.7240386 C8.23349665,75.6116246 8.46827333,75.4540246 8.65896048,75.2512386 C8.8573633,75.0572694 9.01057437,74.8324414 9.11859369,74.5778569 C9.226613,74.3232723 9.28723609,74.0653814 9.30156518,73.8008779 C9.31589427,73.5374765 9.28392937,73.272973 9.203466,73.0084696 C9.12520711,72.742864 8.99734752,72.5004025 8.82098945,72.2766766 C8.65344929,72.0628696 8.43741067,71.8843298 8.17177133,71.7421592 C7.90723424,71.5988865 7.58207406,71.5173312 7.19959751,71.4974935 L2.39824922,71.2351942 C2.03230624,71.2153564 1.70604382,71.2616445 1.41835973,71.3729564 C1.13067564,71.4864725 0.887081061,71.638562 0.688678239,71.8325312 C0.497991083,72.0364193 0.349188966,72.2656556 0.241169652,72.5191381 C0.134252576,72.7737227 0.0725272537,73.0327157 0.058198161,73.2961171 C0.0438690684,73.5606206 0.0769362053,73.825124 0.156297334,74.0896275 C0.235658463,74.354131 0.359109107,74.5932862 0.526649268,74.8070932" id="Fill-149" fill="#1D1D1B"></path>
                <path d="M4.71515328,67.9356235 L4.61705411,68.6707228 L1.80304075,68.2960095 L1.89232202,67.624832 C1.95294511,67.1773803 2.11166737,66.8886306 2.36959103,66.7596852 C2.50626853,66.7001719 2.66278632,66.6704153 2.83914438,66.6682111 C3.01550244,66.6660069 3.21831422,66.679232 3.44647746,66.7100908 C3.67464071,66.7398474 3.87414577,66.7795229 4.0438904,66.8280152 C4.21363504,66.8765075 4.35251701,66.9426334 4.4627408,67.0252908 C4.57076012,67.1167649 4.64681453,67.2346893 4.69200629,67.3779621 C4.73830028,67.5223369 4.74491371,67.7074893 4.71515328,67.9356235 L4.71515328,67.9356235 Z M9.61019179,69.3363899 L5.75787033,68.8228123 L5.8614807,68.0502417 L9.87362665,67.3592264 L10.0565981,65.9893188 L5.75125691,66.8357299 C5.57820556,66.3915845 5.31697517,66.0620573 4.96756576,65.8471482 C4.61815635,65.6333412 4.17615895,65.4911706 3.64377804,65.4206363 C1.87799293,65.1847874 0.893694488,65.8284125 0.691984953,67.3493075 L0.41532324,69.427864 L9.43824268,70.6280485 L9.61019179,69.3363899 Z" id="Fill-151" fill="#1D1D1B"></path>
                <polygon id="Fill-153" fill="#1D1D1B" opacity="0.3" points="14.6175483 60.3920947 2.25815478 57.1188641 1.99582216 58.108548 14.3552157 61.3806764"></polygon>
            </g>
        </g>
    </g>
</svg>