<?xml version="1.0" encoding="UTF-8"?>
<svg width="40px" height="16px" viewBox="0 0 40 16" version="1.1" xmlns="http://www.w3.org/2000/svg" xmlns:xlink="http://www.w3.org/1999/xlink">
    <!-- Generator: Sketch 63.1 (92452) - https://sketch.com -->
    <title>Game/MenuLift/Volatility_high</title>
    <desc>Created with Sketch.</desc>
    <g id="🔪Slice" stroke="none" stroke-width="1" fill="none" fill-rule="evenodd" opacity="0.200000003">
        <g id="Game" transform="translate(-300.000000, -2531.000000)" fill="#000000" fill-rule="nonzero">
            <g id="Group-8" transform="translate(120.000000, 2531.000000)">
                <path d="M183.606292,0.00162754585 L216.155597,0 C217.492875,0 217.977804,0.139238417 218.466693,0.400699056 C218.955582,0.662159695 219.339265,1.04584256 219.600725,1.53473144 L219.693011,1.71955165 C219.89482,2.15817062 220.001425,2.67570945 220.001425,3.8458278 L220.001425,12.1541722 C220.001425,13.4914503 219.862186,13.9763797 219.600725,14.4652686 C219.339265,14.9541574 218.955582,15.3378403 218.466693,15.5993009 L218.281873,15.6915863 C217.843254,15.8933956 217.325715,16 216.155597,16 L183.847252,16 C182.509974,16 182.025045,15.8607616 181.536156,15.5993009 C181.047267,15.3378403 180.663584,14.9541574 180.402124,14.4652686 L180.309838,14.2804483 C180.122444,13.8731593 180.017139,13.397822 180.003052,12.3951324 L180.000337,11.1320466 L180.000337,11.1320466 L180.002337,9.982 L180.001425,3.8458278 C180.001425,2.50854969 180.140663,2.02362033 180.402124,1.53473144 C180.663584,1.04584256 181.047267,0.662159695 181.536156,0.400699056 L181.720976,0.308413717 C182.128265,0.121019363 182.603602,0.0157149411 183.606292,0.00162754585 Z M192.326545,3.5 C191.200898,3.5 190.503173,4.53040446 189.357929,7.56039278 L189.012869,8.49084207 C187.621215,12.2386087 186.801824,13.5 184.995925,13.5 C183.420766,13.5 182.567088,13.1237688 181.250975,12.0784032 L181.001337,11.877 L181.006102,12.5719151 C181.025176,13.3313085 181.104733,13.6585871 181.283937,13.9936697 C181.452198,14.3082901 181.693134,14.5492269 182.007755,14.7174877 C182.342837,14.8966919 182.670116,14.9762489 183.429509,14.9953223 L183.847252,15 L216.155597,15 L216.57334,14.9953223 C217.332733,14.9762489 217.660012,14.8966919 217.995094,14.7174877 C218.309715,14.5492269 218.550651,14.3082901 218.718912,13.9936697 C218.898116,13.6585871 218.977673,13.3313085 218.996747,12.5719151 L219.001425,12.1541722 L219.002378,7.40582357 C218.868397,7.70580079 218.72858,8.03305366 218.581118,8.38937249 L218.33054,8.99971836 L218.084161,9.58538498 C216.839344,12.4881191 216.003836,13.5 214.326325,13.5 C212.682754,13.5 211.823818,12.7719768 210.537787,10.7504349 L209.935429,9.78294807 L209.657927,9.35839781 C208.717149,7.96274231 208.073153,7.5 206.993725,7.5 C205.687567,7.5 205.018188,7.79081048 203.864867,8.70768623 L203.642674,8.88701899 C202.186288,10.0782978 201.327042,10.5 199.658485,10.5 C197.982405,10.5 197.130309,9.651854 195.834305,7.26682196 L195.413601,6.47483794 C194.214203,4.22198147 193.540645,3.5 192.326545,3.5 Z M216.374234,1.00114676 L183.847252,1 L183.429509,1.00467769 C182.670116,1.02375106 182.342837,1.10330814 182.007755,1.28251225 C181.693134,1.45077309 181.452198,1.69170989 181.283937,2.0063303 C181.104733,2.34141286 181.025176,2.66869148 181.006102,3.42808487 L181.001425,3.8458278 L181.000673,10.607868 C181.132617,10.7049305 181.268419,10.8093261 181.409539,10.9214161 L181.646809,11.1128762 C182.940441,12.1716942 183.609012,12.5 184.995925,12.5 C186.121185,12.5 186.818747,11.4697749 187.963829,8.4401996 L188.423354,7.20375224 L188.658819,6.59064434 C189.850212,3.55234199 190.676866,2.5 192.326545,2.5 C194.002254,2.5 194.854163,3.34799987 196.150014,5.73276458 L196.70168,6.76843666 C197.820913,8.83038124 198.488969,9.5 199.658485,9.5 C200.964642,9.5 201.634021,9.20918952 202.787342,8.29231377 L203.009535,8.11298101 C204.465921,6.92170223 205.325167,6.5 206.993725,6.5 C208.63656,6.5 209.495123,7.22777859 210.780847,9.24886404 L211.085687,9.7384839 C212.37222,11.8439297 213.040469,12.5 214.326325,12.5 C215.46785,12.5 216.156107,11.5920035 217.297567,8.87834005 L217.660057,7.99970817 L217.949123,7.31487318 C218.324687,6.44572239 218.663749,5.75036394 219.00146,5.20410388 L219.00146,3.8458278 L218.996747,3.42808487 C218.977673,2.66869148 218.898116,2.34141286 218.718912,2.0063303 C218.550651,1.69170989 218.309715,1.45077309 217.995094,1.28251225 C217.632088,1.08837446 217.278241,1.01118353 216.374234,1.00114676 Z" id="Game/MenuLift/Volatility_high"></path>
            </g>
        </g>
    </g>
</svg>