<?xml version="1.0" encoding="UTF-8"?>
<svg width="40px" height="16px" viewBox="0 0 40 16" version="1.1" xmlns="http://www.w3.org/2000/svg" xmlns:xlink="http://www.w3.org/1999/xlink">
    <!-- Generator: Sketch 63.1 (92452) - https://sketch.com -->
    <title>Game/MenuLift/Volatility_medium</title>
    <desc>Created with Sketch.</desc>
    <g id="🔪Slice" stroke="none" stroke-width="1" fill="none" fill-rule="evenodd" opacity="0.200000003">
        <g id="Game" transform="translate(-240.000000, -2531.000000)" fill="#000000" fill-rule="nonzero">
            <g id="Group-8" transform="translate(120.000000, 2531.000000)">
                <path d="M123.605175,0.00162754585 L156.154479,0 C157.491758,0 157.976687,0.139238417 158.465576,0.400699056 C158.954465,0.662159695 159.338148,1.04584256 159.599608,1.53473144 L159.691894,1.71955165 C159.879288,2.1268407 159.984592,2.60217799 159.99868,3.60486756 L160.000337,6.70421197 L160.000337,12.1541722 C160.000337,13.4914503 159.861069,13.9763797 159.599608,14.4652686 C159.338148,14.9541574 158.954465,15.3378403 158.465576,15.5993009 L158.280756,15.6915863 C157.873467,15.8789806 157.398129,15.9842851 156.39544,15.9983725 L123.846135,16 C122.508857,16 122.023928,15.8607616 121.535039,15.5993009 C121.04615,15.3378403 120.662467,14.9541574 120.401006,14.4652686 L120.308721,14.2804483 C120.121327,13.8731593 120.016022,13.397822 120.001935,12.3951324 L120,11.3859436 L120,11.3859436 L120,3.8458278 C120,2.50854969 120.139546,2.02362033 120.401006,1.53473144 C120.662467,1.04584256 121.04615,0.662159695 121.535039,0.400699056 L121.719859,0.308413717 C122.127148,0.121019363 122.602485,0.0157149411 123.605175,0.00162754585 Z M157.798987,6.5 C155.284745,6.5 154.00146,7.03754443 151.782621,8.68659825 L151.500237,8.89856061 C148.946161,10.833273 147.479215,11.5 144.597667,11.5 C141.827572,11.5 140.364954,10.8835792 137.986506,9.11635169 L137.696554,8.89872632 C135.300325,7.08331041 134.017055,6.5 131.398327,6.5 C128.884635,6.5 127.601634,7.0375329 125.38326,8.68657115 L125.100935,8.89853154 C123.514745,10.1003111 122.347929,10.8128472 121.001012,11.1802416 L121.000307,12.1541722 L121.004985,12.5719151 C121.024058,13.3313085 121.103615,13.6585871 121.28282,13.9936697 C121.45108,14.3082901 121.692017,14.5492269 122.006638,14.7174877 C122.34172,14.8966919 122.668999,14.9762489 123.428392,14.9953223 L123.846135,15 L156.154479,15 L156.572222,14.9953223 C157.331616,14.9762489 157.658894,14.8966919 157.993977,14.7174877 C158.308597,14.5492269 158.549534,14.3082901 158.717795,13.9936697 C158.896999,13.6585871 158.976556,13.3313085 158.99563,12.5719151 L159.000307,12.1541722 L159.002079,6.55100136 C158.630297,6.51601646 158.232981,6.5 157.798987,6.5 Z M156.154479,1 L123.846135,1 L123.428392,1.00467769 C122.668999,1.02375106 122.34172,1.10330814 122.006638,1.28251225 C121.692017,1.45077309 121.45108,1.69170989 121.28282,2.0063303 C121.103615,2.34141286 121.024058,2.66869148 121.004985,3.42808487 L121.000307,3.8458278 L121.001141,10.1345684 C122.031838,9.80670984 122.9779,9.23282066 124.214714,8.31342885 L124.497039,8.10146846 C127.050626,6.16673948 128.517306,5.5 131.398327,5.5 C134.168808,5.5 135.631605,6.11647867 138.010212,7.88382168 L138.300183,8.10146119 C140.696247,9.91675202 141.979346,10.5 144.597667,10.5 C147.111909,10.5 148.395195,9.96245557 150.614033,8.31340175 L150.896418,8.10143939 C153.450493,6.16672696 154.917439,5.5 157.798987,5.5 C158.228647,5.5 158.626856,5.51482334 159.001908,5.54646326 L159.000307,3.8458278 L158.99563,3.42808487 C158.976556,2.66869148 158.896999,2.34141286 158.717795,2.0063303 C158.549534,1.69170989 158.308597,1.45077309 157.993977,1.28251225 C157.658894,1.10330814 157.331616,1.02375106 156.572222,1.00467769 L156.154479,1 Z" id="Game/MenuLift/Volatility_medium"></path>
            </g>
        </g>
    </g>
</svg>