<?xml version="1.0" encoding="UTF-8"?>
<svg width="40px" height="16px" viewBox="0 0 40 16" version="1.1" xmlns="http://www.w3.org/2000/svg" xmlns:xlink="http://www.w3.org/1999/xlink">
    <!-- Generator: Sketch 63.1 (92452) - https://sketch.com -->
    <title>Game/MenuLift/Volatility_hover</title>
    <desc>Created with Sketch.</desc>
    <g id="🔪Slice" stroke="none" stroke-width="1" fill="none" fill-rule="evenodd">
        <g id="Game" transform="translate(-360.000000, -2531.000000)" fill="#000000" stroke="#000000">
            <g id="Group-8" transform="translate(120.000000, 2531.000000)">
                <path d="M276.155597,0.5 C277.351276,0.5 277.791886,0.606821649 278.230894,0.841605655 C278.628109,1.05403855 278.940539,1.36496907 279.154545,1.76088524 C279.41676,2.32112682 279.501425,2.79412051 279.501425,3.8458278 L279.501425,3.8458278 L279.501425,12.1541722 C279.501425,13.3498517 279.394603,13.7904612 279.159819,14.2294691 C278.947386,14.6266841 278.636455,14.9391146 278.240539,15.1531207 C277.680298,15.4153357 277.207304,15.5 276.155597,15.5 L276.155597,15.5 L243.847252,15.5 C242.651573,15.5 242.210963,15.3931784 241.771955,15.1583943 C241.374716,14.9459484 241.062271,14.6349927 240.848265,14.2390518 C240.601091,13.7118669 240.515561,13.2819872 240.503052,12.3950373 L240.503052,12.3950373 L240.501425,3.8458278 C240.501425,2.6501483 240.608246,2.2095388 240.84303,1.77053087 C241.055476,1.37329146 241.366432,1.06084693 241.762373,0.846840215 C242.289558,0.599666557 242.719437,0.514136472 243.606317,0.501627545 L243.606317,0.501627545 Z M262.629723,5.07875331 L259.234904,8.47215875 L257.538481,6.77573593 L255.700003,8.61421356 L259.235537,12.1497475 L264.468127,6.91715729 L262.629723,5.07875331 Z" id="Game/MenuLift/Volatility_hover"></path>
            </g>
        </g>
    </g>
</svg>