<?xml version="1.0" encoding="UTF-8"?>
<svg width="40px" height="16px" viewBox="0 0 40 16" version="1.1" xmlns="http://www.w3.org/2000/svg" xmlns:xlink="http://www.w3.org/1999/xlink">
    <!-- Generator: Sketch 63.1 (92452) - https://sketch.com -->
    <title>Game/MenuLift/Volatility_low</title>
    <desc>Created with Sketch.</desc>
    <g id="🔪Slice" stroke="none" stroke-width="1" fill="none" fill-rule="evenodd" opacity="0.200000003">
        <g id="Game" transform="translate(-180.000000, -2531.000000)" fill="#000000" fill-rule="nonzero">
            <g id="Group-8" transform="translate(120.000000, 2531.000000)">
                <path d="M99.9983725,3.60486756 L100,12.1541722 C100,13.4914503 99.8607616,13.9763797 99.5993009,14.4652686 C99.3378403,14.9541574 98.9541574,15.3378403 98.4652686,15.5993009 L98.2804483,15.6915863 C97.8418294,15.8933956 97.3242905,16 96.1541722,16 L63.8458278,16 C62.5085497,16 62.0236203,15.8607616 61.5347314,15.5993009 C61.0458426,15.3378403 60.6621597,14.9541574 60.4006991,14.4652686 L60.3084137,14.2804483 C60.1210194,13.8731593 60.0157149,13.397822 60.0016275,12.3951324 L60,3.8458278 C60,2.50854969 60.1392384,2.02362033 60.4006991,1.53473144 C60.6621597,1.04584256 61.0458426,0.662159695 61.5347314,0.400699056 L61.7195517,0.308413717 C62.1268407,0.121019363 62.602178,0.0157149411 63.6048676,0.00162754585 L96.1541722,0 C97.4914503,0 97.9763797,0.139238417 98.4652686,0.400699056 C98.9541574,0.662159695 99.3378403,1.04584256 99.5993009,1.53473144 L99.6915863,1.71955165 C99.8789806,2.1268407 99.9842851,2.60217799 99.9983725,3.60486756 L99.9983725,3.60486756 Z M87.99736,7.5 C84.7870542,7.5 83.1245345,7.82940409 80.3446065,8.81680598 L79.9189036,8.96989232 C76.775147,10.113168 75.0023089,10.5 71.49868,10.5 C68.154307,10.5 66.3869561,10.1475353 63.4989443,9.12113956 L63.0784564,8.96989232 C62.3149631,8.6922362 61.6382572,8.46138046 60.9996194,8.2713185 L61,12.1541722 L61.0046777,12.5719151 C61.0237511,13.3313085 61.1033081,13.6585871 61.2825123,13.9936697 C61.4507731,14.3082901 61.6917099,14.5492269 62.0063303,14.7174877 C62.3414129,14.8966919 62.6686915,14.9762489 63.4280849,14.9953223 L63.8458278,15 L96.1541722,15 L96.5719151,14.9953223 C97.3313085,14.9762489 97.6585871,14.8966919 97.9936697,14.7174877 C98.3082901,14.5492269 98.5492269,14.3082901 98.7174877,13.9936697 C98.8966919,13.6585871 98.9762489,13.3313085 98.9953223,12.5719151 L99,12.1541722 L99.0004021,9.90630483 C98.2216821,9.70586256 97.4163877,9.44759098 96.4977138,9.12114764 L96.0771605,8.9699011 C93.0334108,7.86317154 91.3687414,7.5 87.99736,7.5 Z M96.1541722,1 L63.8458278,1 L63.4280849,1.00467769 C62.6686915,1.02375106 62.3414129,1.10330814 62.0063303,1.28251225 C61.6917099,1.45077309 61.4507731,1.69170989 61.2825123,2.0063303 C61.1033081,2.34141286 61.0237511,2.66869148 61.0046777,3.42808487 L61,3.8458278 L60.998763,7.22956839 C61.623726,7.40711053 62.2766002,7.62185902 62.9997357,7.87886044 L63.4202236,8.03010768 C66.463472,9.13683199 68.1278589,9.5 71.49868,9.5 C74.7089858,9.5 76.3715055,9.17059591 79.1514335,8.18319402 L79.5771364,8.03010768 C82.720893,6.88683199 84.4937311,6.5 87.99736,6.5 C91.3422482,6.5 93.1098662,6.85246147 95.9983262,7.87885236 L96.4188795,8.0300989 C97.3856034,8.38160676 98.2132115,8.6581076 99.0005698,8.87178866 L99,3.8458278 L98.9953223,3.42808487 C98.9762489,2.66869148 98.8966919,2.34141286 98.7174877,2.0063303 C98.5492269,1.69170989 98.3082901,1.45077309 97.9936697,1.28251225 C97.6585871,1.10330814 97.3313085,1.02375106 96.5719151,1.00467769 L96.1541722,1 Z" id="Game/MenuLift/Volatility_low"></path>
            </g>
        </g>
    </g>
</svg>