<?xml version="1.0" encoding="UTF-8"?>
<svg width="30px" height="30px" viewBox="0 0 30 30" version="1.1" xmlns="http://www.w3.org/2000/svg" xmlns:xlink="http://www.w3.org/1999/xlink">
    <!-- Generator: Sketch 61 (89581) - https://sketch.com -->
    <title>Game/Home/Category/Asia_icon</title>
    <desc>Created with Sketch.</desc>
    <g id="🔪Slice" stroke="none" stroke-width="1" fill="none" fill-rule="evenodd">
        <g id="Game" transform="translate(-250.000000, -1500.000000)" fill="#FFFFFF" fill-rule="nonzero">
            <g id="Group-5" transform="translate(120.000000, 1500.000000)">
                <g id="Game/Home/Category/Asia_icon" transform="translate(130.000000, 0.000000)">
                    <path d="M27.7204301,24.9247312 L27.7204301,27.4408602 L2.27956989,27.4408602 L2.27956989,24.9247312 L27.7204301,24.9247312 Z M26.6021505,20.7311828 L26.6021505,23.2473118 L3.39784946,23.2473118 L3.39784946,20.7311828 L26.6021505,20.7311828 Z M10.5268817,14.8602151 L10.5268817,19.0537634 L6.33333333,19.0537634 L6.33333333,14.8602151 L10.5268817,14.8602151 Z M17.7956989,14.8602151 L17.7956989,19.0537634 L12.2043011,19.0537634 L12.2043011,14.8602151 L17.7956989,14.8602151 Z M23.6666667,14.8602151 L23.6666667,19.0537634 L19.4731183,19.0537634 L19.4731183,14.8602151 L23.6666667,14.8602151 Z M20.311828,7.59139785 L20.311828,9.2688172 L23.6666667,9.2688172 L24.2688043,11.5053763 L24.3655914,11.5053763 C25.4446753,11.5053763 26.3225806,10.627471 26.3225806,9.5483871 L26.3225806,9.5483871 L28,9.5483871 C28,11.5524 26.3696043,13.1827957 24.3655914,13.1827957 L24.3655914,13.1827957 L5.6344086,13.1827957 C3.6303957,13.1827957 2,11.5524 2,9.5483871 L2,9.5483871 L3.67741935,9.5483871 C3.67741935,10.627471 4.55532473,11.5053763 5.6344086,11.5053763 L5.6344086,11.5053763 L5.7311957,11.5053763 L6.33333333,9.2688172 L9.68817204,9.2688172 L9.68817204,7.59139785 L20.311828,7.59139785 Z M20.311828,2 L20.9139656,4.23655914 L21.0107527,4.23655914 C22.0898366,4.23655914 22.9677419,3.35865376 22.9677419,2.27956989 L22.9677419,2.27956989 L24.6451613,2.27956989 C24.6451613,4.2835828 23.0147656,5.91397849 21.0107527,5.91397849 L21.0107527,5.91397849 L8.98924731,5.91397849 C6.98523441,5.91397849 5.35483871,4.2835828 5.35483871,2.27956989 L5.35483871,2.27956989 L7.03225806,2.27956989 C7.03225806,3.35865376 7.91016344,4.23655914 8.98924731,4.23655914 L8.98924731,4.23655914 L9.08603441,4.23655914 L9.68817204,2 L20.311828,2 Z" id="Combined-Shape"></path>
                </g>
            </g>
        </g>
    </g>
</svg>