<?xml version="1.0" encoding="UTF-8"?>
<svg width="30px" height="30px" viewBox="0 0 30 30" version="1.1" xmlns="http://www.w3.org/2000/svg" xmlns:xlink="http://www.w3.org/1999/xlink">
    <!-- Generator: Sketch 61 (89581) - https://sketch.com -->
    <title>Game/Home/Category/Europe_icon</title>
    <desc>Created with Sketch.</desc>
    <g id="🔪Slice" stroke="none" stroke-width="1" fill="none" fill-rule="evenodd">
        <g id="Game" transform="translate(-380.000000, -1500.000000)" fill="#FFFFFF" fill-rule="nonzero">
            <g id="Group-5" transform="translate(120.000000, 1500.000000)">
                <g id="Game/Home/Category/Europe_icon" transform="translate(260.000000, 0.000000)">
                    <path d="M28.2407813,11.7953906 L28.2407813,13.5560156 L30,13.5560156 L30,15.3138281 L28.2407813,15.3138281 L28.2407813,25.9652344 L30,25.9652344 L30,27.7230469 L0,27.7230469 L0,25.9652344 L1.75921875,25.9652344 L1.75921875,15.3138281 L0,15.3138281 L0,13.5560156 L1.75921875,13.5560156 L1.75921875,11.7953906 L28.2407813,11.7953906 Z M16.4730469,15.3138281 L13.5269531,15.3138281 L13.5269531,25.9652344 L16.4730469,25.9652344 L16.4730469,15.3138281 Z M9.11613281,15.3138281 L6.17009766,15.3138281 L6.17009766,25.9652344 L9.11613281,25.9652344 L9.11613281,15.3138281 Z M23.8299023,15.3138281 L20.8838672,15.3138281 L20.8838672,25.9652344 L23.8299023,25.9652344 L23.8299023,15.3138281 Z M15.8789062,3 L15.8789062,6.51914063 L17.6395313,6.51914063 L17.6395313,4.75921875 L19.3973438,4.75921875 L19.3973438,6.51914063 L30,6.51914063 L30,8.27695313 L28.2407813,8.27695313 L28.2407813,10.0375781 L21.1565625,10.0375781 L21.1565625,8.27765625 L19.39875,8.27765625 L19.39875,10.0375781 L10.60125,10.0375781 L10.60125,8.27765625 L8.8434375,8.27765625 L8.8434375,10.0375781 L1.75921875,10.0375781 L1.75921875,8.27695313 L0,8.27695313 L0,6.51914063 L10.6026562,6.51914063 L10.6026562,4.75921875 L12.3604687,4.75921875 L12.3604687,6.51914063 L14.1210938,6.51914063 L14.1210938,3 L15.8789062,3 Z" id="Combined-Shape"></path>
                </g>
            </g>
        </g>
    </g>
</svg>