<?xml version="1.0" encoding="UTF-8"?>
<svg width="26px" height="20px" viewBox="0 0 26 20" version="1.1" xmlns="http://www.w3.org/2000/svg" xmlns:xlink="http://www.w3.org/1999/xlink">
    <!-- Generator: Sketch 61 (89581) - https://sketch.com -->
    <title>Game/AllGame/ListModel/Certification_GA</title>
    <desc>Created with Sketch.</desc>
    <g id="🔪Slice" stroke="none" stroke-width="1" fill="none" fill-rule="evenodd">
        <g id="Game" transform="translate(-233.000000, -2380.000000)">
            <g id="Game/AllGame/ListModel/Certification/GA" transform="translate(233.000000, 2380.000000)">
                <path d="M8.56476148,4.08339699 C9.39906034,4.08339699 10.1996019,4.23201315 10.884771,4.50843224 L10.9386221,4.53051994 L10.985909,4.24974945 L12.8983352,4.24974945 L11.6707943,14.6473314 C10.9750964,14.8165978 10.2835966,14.9568589 9.60143365,15.0698865 L9.44417951,15.0954872 L9.48866311,14.7188888 C8.79374508,14.9220527 7.99134344,15.037356 7.22036803,15.037356 C5.87464672,15.0335199 4.82784344,14.6523478 4.1919418,13.9350773 C3.61060212,13.2790895 3.37882368,12.372658 3.50267493,11.2399861 L3.5084582,11.1891183 L3.90593361,7.82245437 C4.18242541,5.4811265 5.92414672,4.08339699 8.56476148,4.08339699 Z M18.2993975,4.07765027 C19.9233811,4.07765027 21.046168,4.45262568 21.7317172,5.22389617 C22.5748235,6.17238163 22.5550121,7.50587 22.417655,8.69259556 L22.34025,9.34899453 C21.6932352,9.95731553 20.9242803,10.5578296 20.0379986,11.1342231 L19.9489795,11.1917814 L20.145209,9.5295847 C19.6450451,9.47086338 19.0711107,9.41966666 18.5187172,9.41966666 C16.5671926,9.41966666 15.6240369,10.0364617 15.4608566,11.4197322 C15.3921025,12.0002322 15.487709,12.4273634 15.7529877,12.7256913 C15.8911598,12.8810519 16.08075,13.0041749 16.3164467,13.0982322 C15.5597828,13.4226011 14.790209,13.7147322 14.016209,13.972265 C13.4667664,13.3086257 13.2517992,12.4146749 13.3820779,11.3111421 C13.5836926,9.60387158 14.6284303,7.56876502 18.4595533,7.56876502 C18.9773484,7.56876502 19.580127,7.61066666 20.3302992,7.69926502 C20.3298566,7.18980601 20.2245123,6.84101912 20.0037172,6.59779781 C19.6706434,6.23101092 19.0160041,6.04510929 18.0583156,6.04510929 C17.2583618,6.04510929 16.5633161,6.20990445 15.9908051,6.5349504 L15.9510615,6.55788797 L15.6124549,6.75655191 L14.4794139,5.40205191 L14.8699549,5.10851912 C15.7802828,4.42444535 16.9339795,4.07765027 18.2993975,4.07765027 Z M8.6064418,6.01795437 C7.75327279,6.01795437 6.29869192,6.25944458 6.07541903,7.86500528 L6.06903197,7.91407732 L5.6787123,11.219438 C5.60235984,11.8656675 5.70172869,12.3485691 5.97401557,12.6548642 C6.2709418,12.988897 6.80489262,13.1583478 7.56096639,13.1583478 C8.36403838,13.1583478 9.14946089,12.9798762 9.68221182,12.7939335 L9.71735164,12.7815281 L10.4732041,6.38068388 C9.92899918,6.14823306 9.26587623,6.01795437 8.6064418,6.01795437 Z" id="Shape" fill="#000000"></path>
                <path d="M11.5084107,15.8145945 C11.0880664,17.7797667 9.58602541,18.9382585 7.40256639,18.9382585 C6.10866194,18.9382585 4.87637598,18.5675467 3.83483058,17.8659505 L3.78537787,17.8322913 L3.37064016,17.5470208 L4.54477131,16.1070945 L4.89318934,16.3309142 C5.62159918,16.7989142 6.38069754,17.0264962 7.21437787,17.0264962 C8.22296803,17.0264962 8.84500082,16.7537667 9.17114016,16.1437585 C9.93370574,16.069988 10.7152303,15.9611027 11.5084107,15.8145945 Z M22.0672033,11.6610872 L21.6639,15.0768822 L19.7569328,15.0768822 L19.772941,14.837497 C19.0549284,15.1005582 18.2622089,15.2455477 17.4710694,15.2538489 L17.3991541,15.2542265 L17.3863918,15.254079 C16.5585393,15.2311363 15.8526295,15.0995298 15.2713918,14.8630954 C16.4703836,14.478456 17.661777,14.017538 18.8155475,13.4783494 C19.9890055,12.9301402 21.0451155,12.3378302 21.9773718,11.7208693 L22.0672033,11.6610872 Z M23.7456148,2.9291765 C23.7941557,2.96488142 23.8446148,2.99925847 23.8909426,3.03621748 C26.0942688,4.79324027 25.3162753,7.56914931 22.3295907,10.134711 L22.2384098,10.2123896 L22.3402131,9.34897978 C24.8073934,7.02904535 25.4627705,4.59329125 23.7456148,2.9291765 Z M16.4333951,1.09954289 C20.0431328,0.76779699 23.1977066,1.26110027 24.9304279,2.64186256 C25.0416,2.73060847 25.1440672,2.82245273 25.2410016,2.91614125 C24.175977,2.12657568 22.6261328,1.64500191 20.7851164,1.46079699 C19.5264443,1.15280519 18.0434361,1.03344453 16.4333951,1.09954289 Z M14.2450969,14.4164738 C13.3680479,14.7005816 12.4864247,14.941299 11.6127738,15.1375806 C10.859459,15.3069724 10.1126066,15.442415 9.37962295,15.5453986 C6.27919672,15.9803494 3.43136066,15.8183494 1.44745082,15.0199314 C0.940352459,14.8017183 0.489319672,14.5427101 0.109032787,14.2395134 C0.0701557377,14.2090462 0.0368852459,14.175997 -1.77635684e-15,14.1445708 C2.01796893,15.4100829 5.50353318,15.7090558 9.3280998,15.1137846 L9.44409836,15.0954724 L9.60135358,15.0698717 C10.2835256,14.9568441 10.975089,14.8165831 11.6707869,14.6473167 C12.3990118,14.4700767 13.1310539,14.261618 13.8599917,14.0237281 L14.0161426,13.9723019 L14.1708949,13.9203476 C14.8927689,13.675739 15.6102344,13.4010085 16.3164541,13.0981954 C16.5883574,12.9813355 16.8593164,12.8619749 17.1273984,12.7368601 C18.1266434,12.2699245 19.0393898,11.7702004 19.8583615,11.2497262 L19.9489721,11.1918109 L20.0379914,11.1342459 C20.8947347,10.5770052 21.6419008,9.99734804 22.2751415,9.40982929 L22.3402426,9.34902404 L22.2383656,10.2124339 C21.5795188,10.7692128 20.8173098,11.3155387 19.9584449,11.8386628 L19.8660541,11.8946224 L19.7652579,11.9549338 C19.0904449,12.3562947 18.3589159,12.7432535 17.5738574,13.1101388 C17.4874967,13.1504175 17.4006443,13.189647 17.3136716,13.2285923 L17.1830946,13.286886 C16.3281098,13.6703342 15.4547516,14.010979 14.5745934,14.3075959 L14.4094869,14.3626954 L14.2450969,14.4164738 Z" id="Shape" fill="#0B8B42"></path>
            </g>
        </g>
    </g>
</svg>