<?xml version="1.0" encoding="UTF-8"?>
<svg width="20px" height="20px" viewBox="0 0 20 20" version="1.1" xmlns="http://www.w3.org/2000/svg" xmlns:xlink="http://www.w3.org/1999/xlink">
    <!-- Generator: Sketch 61 (89581) - https://sketch.com -->
    <title>Game/Common/Icon20_ListModel_Checked</title>
    <desc>Created with Sketch.</desc>
    <g id="🔪Slice" stroke="none" stroke-width="1" fill="none" fill-rule="evenodd">
        <g id="Game" transform="translate(-1080.000000, -989.000000)" fill="#000000">
            <g id="Group-2" transform="translate(120.000000, 989.000000)">
                <g id="Game/Common/Icon20/ListModel/Checked" transform="translate(960.000000, 0.000000)">
                    <path d="M19.5,15 C19.7761424,15 20,15.2238576 20,15.5 L20,17.5 C20,17.7761424 19.7761424,18 19.5,18 L9.5,18 C9.22385763,18 9,17.7761424 9,17.5 L9,15.5 C9,15.2238576 9.22385763,15 9.5,15 L19.5,15 Z M5.7180574,11 C6.16381677,11 6.32545989,11.0464128 6.48842285,11.1335664 C6.65138581,11.2207199 6.7792801,11.3486142 6.86643365,11.5115771 C6.95358719,11.6745401 7,11.8361832 7,12.2819426 L7,16.7180574 C7,17.1638168 6.95358719,17.3254599 6.86643365,17.4884229 C6.7792801,17.6513858 6.65138581,17.7792801 6.48842285,17.8664336 C6.32545989,17.9535872 6.16381677,18 5.7180574,18 L1.2819426,18 C0.83618323,18 0.674540111,17.9535872 0.511577148,17.8664336 C0.348614185,17.7792801 0.220719898,17.6513858 0.133566352,17.4884229 C0.0464128056,17.3254599 -2.56162314e-16,17.1638168 -3.10752092e-16,16.7180574 L-2.41696072e-16,12.2819426 C-2.9628585e-16,11.8361832 0.0464128056,11.6745401 0.133566352,11.5115771 C0.220719898,11.3486142 0.348614185,11.2207199 0.511577148,11.1335664 C0.674540111,11.0464128 0.83618323,11 1.2819426,11 L5.7180574,11 Z M19.5,11 C19.7761424,11 20,11.2238576 20,11.5 L20,13.5 C20,13.7761424 19.7761424,14 19.5,14 L9.5,14 C9.22385763,14 9,13.7761424 9,13.5 L9,11.5 C9,11.2238576 9.22385763,11 9.5,11 L19.5,11 Z M5.7180574,2 C6.16381677,2 6.32545989,2.04641281 6.48842285,2.13356635 C6.65138581,2.2207199 6.7792801,2.34861419 6.86643365,2.51157715 C6.95358719,2.67454011 7,2.83618323 7,3.2819426 L7,7.7180574 C7,8.16381677 6.95358719,8.32545989 6.86643365,8.48842285 C6.7792801,8.65138581 6.65138581,8.7792801 6.48842285,8.86643365 C6.32545989,8.95358719 6.16381677,9 5.7180574,9 L1.2819426,9 C0.83618323,9 0.674540111,8.95358719 0.511577148,8.86643365 C0.348614185,8.7792801 0.220719898,8.65138581 0.133566352,8.48842285 C0.0464128056,8.32545989 -2.56162314e-16,8.16381677 -3.10752092e-16,7.7180574 L-2.41696072e-16,3.2819426 C-2.9628585e-16,2.83618323 0.0464128056,2.67454011 0.133566352,2.51157715 C0.220719898,2.34861419 0.348614185,2.2207199 0.511577148,2.13356635 C0.674540111,2.04641281 0.83618323,2 1.2819426,2 L5.7180574,2 Z M19.5,6 C19.7761424,6 20,6.22385763 20,6.5 L20,8.5 C20,8.77614237 19.7761424,9 19.5,9 L9.5,9 C9.22385763,9 9,8.77614237 9,8.5 L9,6.5 C9,6.22385763 9.22385763,6 9.5,6 L19.5,6 Z M19.5,2 C19.7761424,2 20,2.22385763 20,2.5 L20,4.5 C20,4.77614237 19.7761424,5 19.5,5 L9.5,5 C9.22385763,5 9,4.77614237 9,4.5 L9,2.5 C9,2.22385763 9.22385763,2 9.5,2 L19.5,2 Z" id="Combined-Shape"></path>
                </g>
            </g>
        </g>
    </g>
</svg>