<?xml version="1.0" encoding="UTF-8"?>
<svg width="20px" height="20px" viewBox="0 0 20 20" version="1.1" xmlns="http://www.w3.org/2000/svg" xmlns:xlink="http://www.w3.org/1999/xlink">
    <!-- Generator: Sketch 61 (89581) - https://sketch.com -->
    <title>Game/Common/Icon20_HomePage</title>
    <desc>Created with Sketch.</desc>
    <g id="🔪Slice" stroke="none" stroke-width="1" fill="none" fill-rule="evenodd">
        <g id="Game" transform="translate(-240.000000, -989.000000)" fill="#000000">
            <g id="Game/Common/Icon20/HomePage" transform="translate(240.000000, 989.000000)">
                <path d="M10.7276881,2.27314057 L18.80524,9.39877759 C19.0330308,9.59972393 19.0547926,9.94728405 18.8538462,10.1750748 C18.7494392,10.2934296 18.5992194,10.3612293 18.4413945,10.3612293 L15.4979241,10.3612293 L15.4979241,16.9 C15.4979241,17.5075132 15.0054374,18 14.3979241,18 L11.649,18 L11.6493752,14.1931133 C11.6493752,13.3301305 10.9866096,12.6219448 10.1423117,12.5497894 L9.99999706,12.5437352 C9.08907067,12.5437352 8.35061893,13.282187 8.35061893,14.1931133 L8.35061893,14.1931133 L8.35,18 L5.60206997,18 C4.99455674,18 4.50206997,17.5075132 4.50206997,16.9 L4.50206997,10.3612293 L1.55859962,10.3612293 C1.25484301,10.3612293 1.00859962,10.1149859 1.00859962,9.81122931 C1.00859962,9.65340444 1.07639929,9.50318463 1.19475408,9.39877759 L9.27230597,2.27314057 C9.68810164,1.90634515 10.3118925,1.90634515 10.7276881,2.27314057 Z" id="Combined-Shape-Copy"></path>
            </g>
        </g>
    </g>
</svg>