<?xml version="1.0" encoding="UTF-8"?>
<svg width="20px" height="20px" viewBox="0 0 20 20" version="1.1" xmlns="http://www.w3.org/2000/svg" xmlns:xlink="http://www.w3.org/1999/xlink">
    <!-- Generator: Sketch 61 (89581) - https://sketch.com -->
    <title>Game/Common/Icon20_TimeLinePage</title>
    <desc>Created with Sketch.</desc>
    <g id="🔪Slice" stroke="none" stroke-width="1" fill="none" fill-rule="evenodd">
        <g id="Game" transform="translate(-360.000000, -989.000000)" fill="#000000">
            <g id="Game/Common/Icon20/TimeLinePage" transform="translate(360.000000, 989.000000)">
                <path d="M17,8 C17.5522847,8 18,8.44771525 18,9 L18,16 C18,16.5522847 17.5522847,17 17,17 L3,17 C2.44771525,17 2,16.5522847 2,16 L2,9 C2,8.44771525 2.44771525,8 3,8 L17,8 Z M16,5 C16.5522847,5 17,5.44771525 17,6 L17,7 L3,7 L3,6 C3,5.44771525 3.44771525,5 4,5 L16,5 Z M14,2 C14.5522847,2 15,2.44771525 15,3 L15,4 L5,4 L5,3 C5,2.44771525 5.44771525,2 6,2 L14,2 Z" id="Combined-Shape"></path>
            </g>
        </g>
    </g>
</svg>