<?xml version="1.0" encoding="UTF-8"?>
<svg width="20px" height="20px" viewBox="0 0 20 20" version="1.1" xmlns="http://www.w3.org/2000/svg" xmlns:xlink="http://www.w3.org/1999/xlink">
    <!-- Generator: Sketch 63.1 (92452) - https://sketch.com -->
    <title>Linkedin</title>
    <desc>Created with Sketch.</desc>
    <g id="🔪Slice" stroke="none" stroke-width="1" fill="none" fill-rule="evenodd" opacity="0.400000006">
        <g id="Navigation-&amp;-Footer" transform="translate(-720.000000, -638.000000)" fill="#0273B0" fill-rule="nonzero">
            <g id="Group-7" transform="translate(120.000000, 596.000000)">
                <g id="Group-6" transform="translate(600.000000, 42.000000)">
                    <g id="Common/Icon20/Linkedin-Copy-2">
                        <path d="M5.93116415,5.56666269 L5.93116415,16.7473054 L1.76079378,16.7473054 L1.76079378,5.56666269 L5.93116415,5.56666269 Z M13.4667197,5.31185033 C16.6400031,5.31185033 17.7652382,7.09459434 17.7652357,10.6576204 L17.7846092,16.7473054 L13.6185716,16.7473054 L13.6185716,11.293279 C13.6185716,10.9796474 13.6170637,10.8367563 13.6098058,10.6627835 C13.5627722,9.53539022 13.294285,9.0970087 12.4711642,9.0970087 C11.4096793,9.0970087 11.0748679,9.70558267 11.0748679,11.2103169 L11.0748679,16.7473054 L6.89857156,16.7473054 L6.89857156,5.56666269 L10.9326456,5.56666269 L10.9326456,6.16247426 C11.6392815,5.5881902 12.5383844,5.27588917 13.4667197,5.31185033 Z M4.93116415,6.56666269 L2.76079378,6.56666269 L2.76079378,15.7473054 L4.93116415,15.7473054 L4.93116415,6.56666269 Z M10.9057974,7.70562679 L10.7610234,7.95331601 L9.93264564,7.95331601 L9.93264564,6.56666269 L7.89857156,6.56666269 L7.89857156,15.7473054 L10.0748679,15.7473054 L10.0748679,11.2103169 C10.0748679,9.22674417 10.6964,8.0970087 12.4711642,8.0970087 C13.9725088,8.0970087 14.5424582,9.02761256 14.6089367,10.6211009 C14.6156264,10.7814532 14.6178575,10.913949 14.6184153,11.1431543 L14.6185716,15.7473054 L16.781423,15.7473054 L16.7652382,10.6592111 C16.7652382,7.577578 15.9663343,6.31185033 13.4474984,6.31148074 C12.4078894,6.27148592 11.4307898,6.80743441 10.9057974,7.70562679 Z M4.7296839,0.67722469 C5.60390313,1.03850498 6.17412712,1.89114231 6.17412712,2.83706415 C6.17412712,4.12482435 5.13239435,5.16992422 3.84463365,5.1741267 C2.89870131,5.17712965 2.04422594,4.60967232 1.68012128,3.73663776 C1.31601451,2.86359813 1.5140971,1.8571687 2.18188952,1.18722159 C2.84968014,0.517276286 3.85546844,0.315945962 4.7296839,0.67722469 Z M2.89013431,1.89318852 C2.50808759,2.27646795 2.39476418,2.85224805 2.60307045,3.35171589 C2.81137653,3.8511833 3.30022986,4.17583218 3.84140398,4.17411636 C4.57814512,4.17170912 5.17412712,3.57379891 5.17412712,2.83706415 C5.17412712,2.29590334 4.8479,1.80810658 4.3477524,1.60141533 C3.84760487,1.3947241 3.27218284,1.50990729 2.89013431,1.89318852 Z" id="Shape"></path>
                    </g>
                </g>
            </g>
        </g>
    </g>
</svg>