<?xml version="1.0" encoding="UTF-8"?>
<svg width="30px" height="30px" viewBox="0 0 30 30" version="1.1" xmlns="http://www.w3.org/2000/svg" xmlns:xlink="http://www.w3.org/1999/xlink">
    <!-- Generator: Sketch 61 (89581) - https://sketch.com -->
    <title>Game/Home/Category/Music_icon</title>
    <desc>Created with Sketch.</desc>
    <g id="🔪Slice" stroke="none" stroke-width="1" fill="none" fill-rule="evenodd">
        <g id="Game" transform="translate(-510.000000, -1500.000000)" fill="#FFFFFF" fill-rule="nonzero">
            <g id="Group-5" transform="translate(120.000000, 1500.000000)">
                <g id="Game/Home/Category/Music_icon" transform="translate(390.000000, 0.000000)">
                    <path d="M26.7490909,2.1171695 C26.6474439,2.02782286 26.5133262,1.98716778 26.3777968,2.00324072 L11.7895615,3.89937484 C11.5552086,3.93010252 11.3796791,4.13006879 11.3796791,4.36785375 L11.3796791,7.21229129 L11.3796791,9.20344484 L11.3796791,21.2033123 C10.520385,20.1656623 9.15520856,19.4905988 7.61497326,19.4905988 C5.02014973,19.4905988 2.90909091,21.399024 2.90909091,23.7452004 C2.90909091,26.0913768 5.02014973,27.999802 7.61497326,27.999802 C10.2097968,27.999802 12.3208556,26.0913768 12.3208556,23.7452004 C12.3208556,23.6355262 12.3119144,23.527743 12.3025027,23.4204325 C12.3086203,23.3897048 12.3208556,23.3618135 12.3208556,23.3296677 L12.3208556,9.6189776 L25.9679144,7.84480873 L25.9679144,16.4755045 C25.1086203,15.4383271 23.7434439,14.7632637 22.2032086,14.7632637 C19.608385,14.7632637 17.4973262,16.6716889 17.4973262,19.0178653 C17.4973262,21.3640417 19.608385,23.2724669 22.2032086,23.2724669 C24.7745027,23.2724669 26.8681497,21.3976058 26.9057968,19.0807388 C26.9057968,19.0745933 26.9090909,19.0693932 26.9090909,19.0632477 L26.9090909,7.30683799 L26.9090909,5.31615717 L26.9090909,2.47219236 C26.9090909,2.33604511 26.850738,2.20651613 26.7490909,2.1171695 Z" id="Path"></path>
                </g>
            </g>
        </g>
    </g>
</svg>