<?xml version="1.0" encoding="UTF-8"?>
<svg width="30px" height="30px" viewBox="0 0 30 30" version="1.1" xmlns="http://www.w3.org/2000/svg" xmlns:xlink="http://www.w3.org/1999/xlink">
    <!-- Generator: Sketch 61 (89581) - https://sketch.com -->
    <title>Game/Home/Category/Poker_icon</title>
    <desc>Created with Sketch.</desc>
    <g id="🔪Slice" stroke="none" stroke-width="1" fill="none" fill-rule="evenodd">
        <g id="Game" transform="translate(-640.000000, -1500.000000)" fill="#FFFFFF" fill-rule="nonzero">
            <g id="Group-5" transform="translate(120.000000, 1500.000000)">
                <g id="Game/Home/Category/Poker_icon" transform="translate(520.000000, 0.000000)">
                    <path d="M27.9736638,16.1191929 C27.9736638,12.543958 25.0111117,9.59237766 21.3559528,9.50854508 C21.399063,9.20293043 21.4220401,8.89237564 21.4220401,8.58444062 C21.4220401,4.93794809 18.3826232,1.97237069 14.6455849,1.97237069 C10.9095196,1.97237069 7.87070141,4.93794809 7.87070141,8.58444062 C7.87070141,9.01834906 7.91448518,9.45188324 8.00010677,9.87621081 C4.61580848,10.2397598 1.97366379,13.1131213 1.97366379,16.4463645 C1.97366379,20.0919588 5.01382914,23.0584344 8.75071776,23.0584344 C10.7834822,23.0584344 12.7297269,22.1514707 14.0076142,20.6223495 C13.4723296,23.0283445 11.877328,26.0257333 7.39641466,27.2082966 L7.20990328,27.2581471 L7.3047307,27.9723707 L22.757707,27.9723707 L22.8413078,27.2518596 L22.6534493,27.2082966 C22.4507716,27.1584462 17.7349228,25.9421253 16.2158879,20.602589 C17.4832971,21.9401677 19.3254337,22.7302897 21.1981067,22.7302897 C24.9337978,22.7302897 27.9736638,19.7652363 27.9736638,16.1191929 Z" id="Path"></path>
                </g>
            </g>
        </g>
    </g>
</svg>