<?xml version="1.0" encoding="UTF-8"?>
<svg width="20px" height="20px" viewBox="0 0 20 20" version="1.1" xmlns="http://www.w3.org/2000/svg" xmlns:xlink="http://www.w3.org/1999/xlink">
    <!-- Generator: Sketch 63.1 (92452) - https://sketch.com -->
    <title>Skype</title>
    <desc>Created with Sketch.</desc>
    <g id="🔪Slice" stroke="none" stroke-width="1" fill="none" fill-rule="evenodd" opacity="0.400000006" stroke-linecap="round" stroke-linejoin="round">
        <g id="Navigation-&amp;-Footer" transform="translate(-840.000000, -638.000000)" stroke="#0078D7">
            <g id="Group-7" transform="translate(120.000000, 596.000000)">
                <g id="Group-6-Copy" transform="translate(720.000000, 42.000000)">
                    <g id="Common/Icon20/Skype-Copy">
                        <g id="Group" transform="translate(1.500000, 1.500000)">
                            <path d="M16.3751863,9.88858892 C16.454273,9.43775927 16.4956458,8.97377691 16.4956458,8.49972016 C16.4956458,4.08433199 12.9156319,0.504279976 8.49971855,0.504279976 C8.02576074,0.504279976 7.56193504,0.545137288 7.11105593,0.624333311 C6.41672461,0.226394285 5.61178438,0 4.75393199,0 C2.12830701,0 0,2.1287779 0,4.75427998 C0,5.61172384 0.226565346,6.41683677 0.624813748,7.11141108 C0.545164067,7.56196089 0.50435416,8.02594324 0.50435416,8.49972016 C0.50435416,12.9153882 4.08436807,16.4959999 8.49971855,16.4959999 C8.97395782,16.4959999 9.43778352,16.4545829 9.88894407,16.3753868 C10.5835568,16.7733259 11.3882156,17 12.2455051,17 C14.8711301,17 17,14.8715019 17,12.2454402 C17,11.3879963 16.7725903,10.5831632 16.3751863,9.88858892" id="Path"></path>
                            <path d="M8.53264793,13.6141601 C5.69171551,13.6141601 4.39396046,12.1763186 4.39396046,11.1199052 C4.39396046,10.578126 4.82063508,10.205373 5.36636204,10.205373 C6.58165293,10.205373 6.26530578,12.0182064 8.53264793,12.0182064 C9.69305652,12.0182064 10.3727526,11.3239119 10.3727526,10.6727135 C10.3727526,10.2806512 10.1467501,9.84493317 9.38261978,9.65435899 L6.85662726,9.01771252 C4.82260521,8.50363798 4.46601106,7.37810298 4.46601106,6.33512214 C4.46601106,4.16856522 6.45753452,3.38556002 8.35589881,3.38556002 C10.1034072,3.38556002 12.1810536,4.34430763 12.1810536,5.64446566 C12.1810536,6.20135642 11.7113175,6.50442813 11.1653091,6.50442813 C10.1278931,6.50442813 10.300702,5.0537137 8.21151617,5.0537137 C7.1741002,5.0537137 6.62724744,5.53644564 6.62724744,6.21506881 C6.62724744,6.89173306 7.42965465,7.12148548 8.14059137,7.28491473 L10.0099666,7.70412195 C12.058061,8.16418648 12.6057581,9.35800356 12.6057581,10.4950122 C12.6057581,12.2555146 11.2345452,13.6141601 8.53264793,13.6141601" id="Path"></path>
                        </g>
                    </g>
                </g>
            </g>
        </g>
    </g>
</svg>