<?xml version="1.0" encoding="UTF-8"?>
<svg width="20px" height="20px" viewBox="0 0 20 20" version="1.1" xmlns="http://www.w3.org/2000/svg" xmlns:xlink="http://www.w3.org/1999/xlink">
    <!-- Generator: Sketch 63.1 (92452) - https://sketch.com -->
    <title>Twitter</title>
    <desc>Created with Sketch.</desc>
    <g id="🔪Slice" stroke="none" stroke-width="1" fill="none" fill-rule="evenodd" opacity="0.400000006">
        <g id="Navigation-&amp;-Footer" transform="translate(-360.000000, -638.000000)" fill="#1EA1F1" fill-rule="nonzero">
            <g id="Group-7" transform="translate(120.000000, 596.000000)">
                <g id="Group-3" transform="translate(240.000000, 42.000000)">
                    <g id="Common/Icon20/Twitter-Copy-2">
                        <path d="M17.572944,7.00725896 C17.7413873,10.3008329 16.8189758,12.9296883 14.8087852,14.7400212 C12.4952111,16.8237237 8.85919945,17.6206334 4.83733955,16.9897502 C4.14380671,16.881025 3.40776164,16.6540366 2.65307381,16.3446602 L0.196446651,15.3375918 L2.70703528,14.4737929 C3.55339974,14.1825908 4.23279559,13.92185 5.02310712,13.5747461 C4.19140459,13.2646222 3.48721163,12.7062161 2.99307105,11.9465651 L2.05396142,10.5028555 L2.97647883,10.4492653 C2.52363383,10.1353902 2.15326555,9.74358927 1.86111126,9.29983886 C1.60515854,8.91078323 1.41918483,8.49245535 1.30335906,8.06811958 L0.844671947,6.38768732 L1.99648897,6.69661309 C1.25516955,5.65636522 1.00059212,4.37177728 1.3286597,3.11381384 L1.77861894,1.3884612 L3.01619745,2.67209061 C3.46564505,3.13826237 3.93828759,3.54917194 4.43192625,3.90853845 C5.58117469,4.74518565 6.80541326,5.28000671 8.07438237,5.5820074 C8.50452112,5.68437569 8.92184522,5.75567372 9.3374814,5.8038216 C8.95931663,3.96146326 9.76783547,2.62426249 11.0508032,1.83564264 C12.6680686,0.841707401 14.9018886,0.931782645 16.3807399,2.29371871 C16.4025551,2.31379416 16.4184083,2.31803607 16.4246506,2.3164854 C16.6664833,2.25639364 16.8773262,2.19144995 17.1229499,2.10391463 L19.0940328,1.40146079 L18.3626476,3.49006008 L19.5906403,3.49093143 L18.4000346,5.08735815 C18.2600927,5.2749996 18.1152153,5.46881955 17.9553238,5.68219365 C17.6861601,6.04163065 17.547736,6.51268076 17.572944,7.00725896 Z M17.1549988,5.0826272 C17.3306274,4.8482522 17.4766541,4.65278712 17.5984192,4.48951806 L16.9532776,4.48906028 L17.4586487,3.04588403 C17.2158813,3.13240138 16.967926,3.21189966 16.665802,3.2869729 C16.3291931,3.37059107 15.9695434,3.2743081 15.7035828,3.02955712 C14.4721985,1.89552392 12.694397,1.99928368 11.5744019,2.68760767 C11.038208,3.01719751 9.84939574,3.99086083 10.3918457,5.90843286 C10.4162598,5.99464501 10.4187012,5.99678126 10.5119324,6.90239036 C10.0883484,6.8041238 5.88027953,7.0835122 2.29629516,3.36616603 C1.95892336,4.65980614 2.41912844,6.00547876 3.56750488,6.90116966 L5.16128539,8.14445583 L3.14971922,7.94548122 C2.74002074,7.90489282 2.48596191,7.86323634 2.26806641,7.80479517 C2.35015867,8.10554591 2.48703004,8.4317788 2.6965332,8.75022974 C3.01559449,9.23484888 3.61755371,9.86671532 4.67361449,10.1253518 L6.84692383,10.6575784 L4.69161988,11.2578591 C4.40917969,11.3365945 4.12551879,11.3842019 3.83132934,11.4012918 C4.38537598,12.2530374 5.28671266,12.7776345 6.36917113,12.8469094 L8.62899781,12.9915627 L6.58218383,13.9603433 C5.1159668,14.654313 4.20806883,15.0148782 3.03237914,15.4193887 C3.6126709,15.6572732 4.31381227,15.8954629 4.99221801,16.0018167 C8.73825074,16.5894326 12.0724488,15.8586892 14.1395569,13.9969643 C15.9091187,12.4033364 16.7282105,10.0687417 16.5742493,7.05833521 C16.537323,6.3338479 16.7434692,5.63209618 17.1549988,5.0826272 Z" id="Path"></path>
                    </g>
                </g>
            </g>
        </g>
    </g>
</svg>