<?xml version="1.0" encoding="UTF-8"?>
<svg width="20px" height="20px" viewBox="0 0 20 20" version="1.1" xmlns="http://www.w3.org/2000/svg" xmlns:xlink="http://www.w3.org/1999/xlink">
    <!-- Generator: Sketch 63.1 (92452) - https://sketch.com -->
    <title>YouTube</title>
    <desc>Created with Sketch.</desc>
    <g id="🔪Slice" stroke="none" stroke-width="1" fill="none" fill-rule="evenodd" opacity="0.400000006">
        <g id="Navigation-&amp;-Footer" transform="translate(-600.000000, -638.000000)" fill="#FF2500" fill-rule="nonzero">
            <g id="Group-7" transform="translate(120.000000, 596.000000)">
                <g id="Group-5" transform="translate(480.000000, 42.000000)">
                    <g id="Common/Icon20/YouTube-Copy-2">
                        <path d="M10.1228648,2.50029412 C10.1756252,2.50050411 10.2398968,2.50083995 10.3147967,2.50134339 C10.5639708,2.50301819 10.8415009,2.50603151 11.1403356,2.51071822 C11.9945373,2.52411491 12.8489126,2.54823385 13.6474827,2.58580645 C15.1802445,2.65792265 16.3177548,2.76935357 16.9451462,2.93805932 C17.9814804,3.22058322 18.7890937,4.03335758 19.065014,5.07146291 C19.2050811,5.5975257 19.3070495,6.31029368 19.3792782,7.17036443 C19.432195,7.80047762 19.4661037,8.47342924 19.4849332,9.14607355 C19.4962275,9.54953573 19.5,9.86398957 19.5,10.0454545 C19.5,10.2269195 19.4962275,10.5413734 19.4849332,10.9448355 C19.4661037,11.6174799 19.432195,12.2904315 19.3792782,12.9205447 C19.307044,13.7806809 19.2050655,14.4934919 19.065046,15.019326 C18.7891561,16.0574888 17.9815204,16.870315 16.9434721,17.1533031 C16.3177548,17.3215555 15.1802445,17.4329864 13.6474827,17.5051026 C12.8489126,17.5426752 11.9945373,17.5667942 11.1403356,17.5801909 C10.8415009,17.5848776 10.5639708,17.5878909 10.3147967,17.5895657 C10.2398968,17.5900691 10.1756252,17.590405 10.1228648,17.590615 L9.87713521,17.590615 C9.82437479,17.590405 9.76010318,17.5900691 9.68520327,17.5895657 C9.43602921,17.5878909 9.15849908,17.5848776 8.8596644,17.5801909 C8.00546271,17.5667942 7.15108741,17.5426752 6.35251733,17.5051026 C4.81975553,17.4329864 3.68224517,17.3215555 3.05485375,17.1528498 C2.01847965,16.870315 1.21084394,16.0574888 0.935017958,15.0195663 C0.79493447,14.4934919 0.692955999,13.7806809 0.620721829,12.9205447 C0.567804975,12.2904315 0.533896322,11.6174799 0.515066784,10.9448355 C0.503772544,10.5413734 0.5,10.2269195 0.5,10.0454545 L0.500241903,9.95966989 C0.501231374,9.77232912 0.505386007,9.49189827 0.515066784,9.14607355 C0.533896322,8.47342924 0.567804975,7.80047762 0.620721829,7.17036443 C0.692955999,6.3102282 0.79493447,5.59741717 0.934954031,5.07158308 C1.21084394,4.0334203 2.01847965,3.22059413 3.05652792,2.93760603 C3.68224517,2.76935357 4.81975553,2.65792265 6.35251733,2.58580645 C7.15108741,2.54823385 8.00546271,2.52411491 8.8596644,2.51071822 C9.15849908,2.50603151 9.43602921,2.50301819 9.68520327,2.50134339 C9.76010318,2.50083995 9.82437479,2.50050411 9.87713521,2.50029412 Z M10.1195599,3.50028867 L9.8804401,3.50028867 C9.82879864,3.50049496 9.76566457,3.50082516 9.69192452,3.5013208 C9.44563206,3.50297623 9.17107091,3.50595732 8.87534576,3.51059526 C8.03080507,3.52384043 7.186438,3.54767684 6.39951519,3.58470144 C4.94095655,3.6533264 3.84748242,3.76044351 3.31787352,3.90284977 C2.62539429,4.09163245 2.08575233,4.63474255 1.90134568,5.32865724 C1.77963438,5.78573609 1.6849325,6.44768502 1.61721406,7.25404976 C1.56603396,7.86348234 1.53302315,8.51861546 1.5146752,9.17405589 C1.50680931,9.45504779 1.50269306,9.69110621 1.50098303,9.86599264 L1.50098303,10.2249164 C1.50269306,10.3998029 1.50680931,10.6358613 1.5146752,10.9168532 C1.53302315,11.5722936 1.56603396,12.2274268 1.61721406,12.8368593 C1.6849325,13.6432241 1.77963438,14.305173 1.90140961,14.7624922 C2.08575233,15.4561665 2.62539429,15.9992766 3.31619936,16.187606 C3.84748242,16.3304656 4.94095655,16.4375827 6.39951519,16.5062077 C7.186438,16.5432323 8.03080507,16.5670687 8.87534576,16.5803138 C9.17107091,16.5849518 9.44563206,16.5879329 9.69192452,16.5895883 C9.76566457,16.5900839 9.82879864,16.5904141 9.8804401,16.5906204 L10.1195599,16.5906204 C10.1712014,16.5904141 10.2343354,16.5900839 10.3080755,16.5895883 C10.5543679,16.5879329 10.8289291,16.5849518 11.1246542,16.5803138 C11.9691949,16.5670687 12.813562,16.5432323 13.6004848,16.5062077 C15.0590434,16.4375827 16.1525176,16.3304656 16.6821265,16.1880593 C17.3746057,15.9992766 17.9142477,15.4561665 18.0986543,14.7622519 C18.2203656,14.305173 18.3150675,13.6432241 18.3827859,12.8368593 C18.433966,12.2274268 18.4669769,11.5722936 18.4853248,10.9168532 C18.496337,10.5234645 18.5,10.2181455 18.5,10.0454545 C18.5,9.87276359 18.496337,9.56744456 18.4853248,9.17405589 C18.4669769,8.51861546 18.433966,7.86348234 18.3827859,7.25404976 C18.3150675,6.44768502 18.2203656,5.78573609 18.0985904,5.32841692 C17.9142477,4.63474255 17.3746057,4.09163245 16.6838006,3.90330306 C16.1525176,3.76044351 15.0590434,3.6533264 13.6004848,3.58470144 C12.813562,3.54767684 11.9691949,3.52384043 11.1246542,3.51059526 C10.8289291,3.50595732 10.5543679,3.50297623 10.3080755,3.5013208 C10.2343354,3.50082516 10.1712014,3.50049496 10.1195599,3.50028867 Z M7.45454545,6.21188182 L14.1929614,10.0454545 L7.45454545,13.8790273 L7.45454545,6.21188182 Z M8.45454545,7.9313 L8.45454545,12.1596091 L12.170675,10.0454545 L8.45454545,7.9313 Z" id="Combined-Shape"></path>
                    </g>
                </g>
            </g>
        </g>
    </g>
</svg>